<svg viewBox="0 0 168 168" fill="none" xmlns="http://www.w3.org/2000/svg"> <path d="M106.589 98.5843C106.054 96.9939 103.485 92.0168 101.933 89.3617C100.804 91.5976 98.377 96.5721 97.6994 98.5843C96.8528 101.101 97.6994 104.454 101.933 104.454C106.166 104.454 107.436 101.101 106.589 98.5843Z" fill="#2D3D4D" style="fill:#2D3D4D;fill:color(display-p3 0.1765 0.2392 0.3020);fill-opacity:1;"></path> <path d="M106.589 117.45C106.054 115.859 103.485 110.882 101.933 108.227C100.804 110.463 98.377 115.437 97.6994 117.45C96.8528 119.965 97.6994 123.319 101.933 123.319C106.166 123.319 107.436 119.965 106.589 117.45Z" fill="#2D3D4D" style="fill:#2D3D4D;fill:color(display-p3 0.1765 0.2392 0.3020);fill-opacity:1;"></path> <path d="M75.6955 51.0132C85.5578 51.0132 95.7348 51.0132 99.4224 51.0132C105.462 51.0132 108.59 53.7095 108.59 60.1805C108.59 65.7528 108.59 77.5444 108.59 80.1329C108.59 82.7213 107.512 83.9076 104.815 83.9076C103.018 83.9076 98.6674 83.9076 95.648 83.9076C92.6281 83.9076 91.8731 82.2898 91.8731 80.1329C91.8731 79.2341 91.8731 76.4659 91.8731 72.5833C91.8731 68.7007 90.2553 68.8085 88.0983 68.8085H59.8723C59.3788 68.8085 58.9788 68.4084 58.9788 67.915V51.9069C58.9788 51.4134 59.3781 51.0132 59.8716 51.0132C64.0828 51.0132 69.8336 51.0132 75.6955 51.0132ZM75.6955 51.0132V37.532M62.2143 37.532H88.0983" stroke="#2D3D4D" style="stroke:#2D3D4D;stroke:color(display-p3 0.1765 0.2392 0.3020);stroke-opacity:1;" stroke-width="1.5" stroke-linecap="round" stroke-linejoin="round"></path> </svg>