<svg viewBox="0 0 168 168" fill="none" xmlns="http://www.w3.org/2000/svg"> <path d="M69.4402 50.1196C79.3024 50.1196 89.4791 50.1196 93.1673 50.1196C99.2068 50.1196 102.334 52.8159 102.334 59.2869C102.334 64.8591 102.334 76.6508 102.334 79.2392C102.334 81.8276 101.256 83.014 98.56 83.014C96.7624 83.014 92.4123 83.014 89.3925 83.014C86.3727 83.014 85.6177 81.3962 85.6177 79.2392C85.6177 78.3404 85.6177 75.5722 85.6177 71.6896C85.6177 67.8071 84 67.9149 81.843 67.9149H53.617C53.1234 67.9149 52.7234 67.5147 52.7234 67.0213V51.0132C52.7234 50.5197 53.1228 50.1196 53.6163 50.1196C57.8274 50.1196 63.5783 50.1196 69.4402 50.1196ZM69.4402 50.1196V36.6383M55.9589 36.6383H81.843" stroke="#2D3D4D" style="stroke:#2D3D4D;stroke:color(display-p3 0.1765 0.2392 0.3020);stroke-opacity:1;" stroke-width="1.5" stroke-linecap="round" stroke-linejoin="round"></path> <path d="M94.7846 99.1915C96.5715 99.1915 98.0201 97.7429 98.0201 95.956C98.0201 94.169 96.5715 92.7205 94.7846 92.7205C92.9976 92.7205 91.549 94.169 91.549 95.956C91.549 97.7429 92.9976 99.1915 94.7846 99.1915Z" fill="#2D3D4D" style="fill:#2D3D4D;fill:color(display-p3 0.1765 0.2392 0.3020);fill-opacity:1;"></path> <path d="M88.3135 109.977C90.1004 109.977 91.549 108.529 91.549 106.742C91.549 104.955 90.1004 103.506 88.3135 103.506C86.5266 103.506 85.078 104.955 85.078 106.742C85.078 108.529 86.5266 109.977 88.3135 109.977Z" fill="#2D3D4D" style="fill:#2D3D4D;fill:color(display-p3 0.1765 0.2392 0.3020);fill-opacity:1;"></path> <path d="M100.177 109.976C101.964 109.976 103.413 108.528 103.413 106.741C103.413 104.954 101.964 103.505 100.177 103.505C98.3905 103.505 96.9419 104.954 96.9419 106.741C96.9419 108.528 98.3905 109.976 100.177 109.976Z" fill="#2D3D4D" style="fill:#2D3D4D;fill:color(display-p3 0.1765 0.2392 0.3020);fill-opacity:1;"></path> <path d="M88.3135 109.977C90.1004 109.977 91.549 108.529 91.549 106.742C91.549 104.955 90.1004 103.506 88.3135 103.506C86.5266 103.506 85.078 104.955 85.078 106.742C85.078 108.529 86.5266 109.977 88.3135 109.977Z" fill="#2D3D4D" style="fill:#2D3D4D;fill:color(display-p3 0.1765 0.2392 0.3020);fill-opacity:1;"></path> <path d="M100.177 109.976C101.964 109.976 103.413 108.528 103.413 106.741C103.413 104.954 101.964 103.505 100.177 103.505C98.3905 103.505 96.9419 104.954 96.9419 106.741C96.9419 108.528 98.3905 109.976 100.177 109.976Z" fill="#2D3D4D" style="fill:#2D3D4D;fill:color(display-p3 0.1765 0.2392 0.3020);fill-opacity:1;"></path> <path d="M82.9214 120.762C84.7083 120.762 86.1569 119.313 86.1569 117.526C86.1569 115.739 84.7083 114.291 82.9214 114.291C81.1345 114.291 79.6859 115.739 79.6859 117.526C79.6859 119.313 81.1345 120.762 82.9214 120.762Z" fill="#2D3D4D" style="fill:#2D3D4D;fill:color(display-p3 0.1765 0.2392 0.3020);fill-opacity:1;"></path> <path d="M94.7846 120.761C96.5715 120.761 98.0201 119.312 98.0201 117.525C98.0201 115.738 96.5715 114.29 94.7846 114.29C92.9976 114.29 91.549 115.738 91.549 117.525C91.549 119.312 92.9976 120.761 94.7846 120.761Z" fill="#2D3D4D" style="fill:#2D3D4D;fill:color(display-p3 0.1765 0.2392 0.3020);fill-opacity:1;"></path> <path d="M82.9214 120.762C84.7083 120.762 86.1569 119.313 86.1569 117.526C86.1569 115.739 84.7083 114.291 82.9214 114.291C81.1345 114.291 79.6859 115.739 79.6859 117.526C79.6859 119.313 81.1345 120.762 82.9214 120.762Z" fill="#2D3D4D" style="fill:#2D3D4D;fill:color(display-p3 0.1765 0.2392 0.3020);fill-opacity:1;"></path> <path d="M94.7846 120.761C96.5715 120.761 98.0201 119.312 98.0201 117.525C98.0201 115.738 96.5715 114.29 94.7846 114.29C92.9976 114.29 91.549 115.738 91.549 117.525C91.549 119.312 92.9976 120.761 94.7846 120.761Z" fill="#2D3D4D" style="fill:#2D3D4D;fill:color(display-p3 0.1765 0.2392 0.3020);fill-opacity:1;"></path> <path d="M106.648 120.761C108.435 120.761 109.884 119.312 109.884 117.525C109.884 115.738 108.435 114.29 106.648 114.29C104.861 114.29 103.413 115.738 103.413 117.525C103.413 119.312 104.861 120.761 106.648 120.761Z" fill="#2D3D4D" style="fill:#2D3D4D;fill:color(display-p3 0.1765 0.2392 0.3020);fill-opacity:1;"></path> <path d="M76.4501 131.546C78.237 131.546 79.6856 130.098 79.6856 128.311C79.6856 126.524 78.237 125.075 76.4501 125.075C74.6632 125.075 73.2146 126.524 73.2146 128.311C73.2146 130.098 74.6632 131.546 76.4501 131.546Z" fill="#2D3D4D" style="fill:#2D3D4D;fill:color(display-p3 0.1765 0.2392 0.3020);fill-opacity:1;"></path> <path d="M88.3135 131.546C90.1004 131.546 91.549 130.098 91.549 128.311C91.549 126.524 90.1004 125.075 88.3135 125.075C86.5266 125.075 85.078 126.524 85.078 128.311C85.078 130.098 86.5266 131.546 88.3135 131.546Z" fill="#2D3D4D" style="fill:#2D3D4D;fill:color(display-p3 0.1765 0.2392 0.3020);fill-opacity:1;"></path> <path d="M76.4501 131.546C78.237 131.546 79.6856 130.098 79.6856 128.311C79.6856 126.524 78.237 125.075 76.4501 125.075C74.6632 125.075 73.2146 126.524 73.2146 128.311C73.2146 130.098 74.6632 131.546 76.4501 131.546Z" fill="#2D3D4D" style="fill:#2D3D4D;fill:color(display-p3 0.1765 0.2392 0.3020);fill-opacity:1;"></path> <path d="M88.3135 131.546C90.1004 131.546 91.549 130.098 91.549 128.311C91.549 126.524 90.1004 125.075 88.3135 125.075C86.5266 125.075 85.078 126.524 85.078 128.311C85.078 130.098 86.5266 131.546 88.3135 131.546Z" fill="#2D3D4D" style="fill:#2D3D4D;fill:color(display-p3 0.1765 0.2392 0.3020);fill-opacity:1;"></path> <path d="M100.177 131.546C101.964 131.546 103.413 130.098 103.413 128.311C103.413 126.524 101.964 125.075 100.177 125.075C98.3905 125.075 96.9419 126.524 96.9419 128.311C96.9419 130.098 98.3905 131.546 100.177 131.546Z" fill="#2D3D4D" style="fill:#2D3D4D;fill:color(display-p3 0.1765 0.2392 0.3020);fill-opacity:1;"></path> <path d="M112.041 131.546C113.828 131.546 115.277 130.098 115.277 128.311C115.277 126.524 113.828 125.075 112.041 125.075C110.254 125.075 108.806 126.524 108.806 128.311C108.806 130.098 110.254 131.546 112.041 131.546Z" fill="#2D3D4D" style="fill:#2D3D4D;fill:color(display-p3 0.1765 0.2392 0.3020);fill-opacity:1;"></path> </svg>