<svg viewBox="0 0 168 168" fill="none" xmlns="http://www.w3.org/2000/svg"> <g clip-path="url(#clip0_12517_12636)"> <mask id="mask0_12517_12636" style="mask-type:luminance" maskUnits="userSpaceOnUse" x="0" y="0" width="258" height="168"> <path d="M257.727 0H0V168H257.727V0Z" fill="white" style="fill:white;fill-opacity:1;"></path> </mask> <g mask="url(#mask0_12517_12636)"> <path d="M111.671 112.659H120.862M120.862 112.659V53.3646H199.65V112.659M120.862 112.659H199.65M207.529 112.659H199.65" stroke="#2D3D4D" style="stroke:#2D3D4D;stroke:color(display-p3 0.1765 0.2392 0.3020);stroke-opacity:1;" stroke-width="1.5" stroke-linecap="round" stroke-linejoin="round"></path> <path d="M160.262 53.3646V112.659M121.059 84.196H198.635" stroke="#2D3D4D" style="stroke:#2D3D4D;stroke:color(display-p3 0.1765 0.2392 0.3020);stroke-opacity:1;" stroke-width="1.5" stroke-linecap="round" stroke-linejoin="round"></path> <path d="M72.1411 52.3765H13.8353V169.976H72.1411V52.3765Z" stroke="#2D3D4D" style="stroke:#2D3D4D;stroke:color(display-p3 0.1765 0.2392 0.3020);stroke-opacity:1;" stroke-width="1.5" stroke-linecap="round" stroke-linejoin="round"></path> <path d="M54.3529 66.2117H29.647V97.8352H54.3529V66.2117Z" stroke="#2D3D4D" style="stroke:#2D3D4D;stroke:color(display-p3 0.1765 0.2392 0.3020);stroke-opacity:1;" stroke-width="1.5" stroke-linecap="round" stroke-linejoin="round"></path> <path d="M54.3529 110.682H29.647V153.176H54.3529V110.682Z" stroke="#2D3D4D" style="stroke:#2D3D4D;stroke:color(display-p3 0.1765 0.2392 0.3020);stroke-opacity:1;" stroke-width="1.5" stroke-linecap="round" stroke-linejoin="round"></path> <path d="M98.8235 111.671C119.018 111.671 135.388 95.3 135.388 75.1058C135.388 54.9117 119.018 38.5411 98.8235 38.5411C78.6294 38.5411 62.2588 54.9117 62.2588 75.1058C62.2588 95.3 78.6294 111.671 98.8235 111.671Z" fill="white" fill-opacity="0.6" stroke="#2D3D4D" style="fill:white;fill-opacity:0.6;stroke:#2D3D4D;stroke:color(display-p3 0.1765 0.2392 0.3020);stroke-opacity:1;" stroke-width="1.5" stroke-linecap="round" stroke-linejoin="round" stroke-dasharray="4.79 9.57"></path> <path d="M99.3176 79.0588C101.228 79.0588 102.776 77.5102 102.776 75.5999C102.776 73.6897 101.228 72.1411 99.3176 72.1411C97.4074 72.1411 95.8588 73.6897 95.8588 75.5999C95.8588 77.5102 97.4074 79.0588 99.3176 79.0588Z" stroke="#2D3D4D" style="stroke:#2D3D4D;stroke:color(display-p3 0.1765 0.2392 0.3020);stroke-opacity:1;" stroke-width="1.5" stroke-linecap="round" stroke-linejoin="round"></path> <path d="M99.3176 89.9293C107.232 89.9293 113.647 83.5138 113.647 75.5999C113.647 67.686 107.232 61.2705 99.3176 61.2705C91.4037 61.2705 84.9882 67.686 84.9882 75.5999C84.9882 83.5138 91.4037 89.9293 99.3176 89.9293Z" stroke="#2D3D4D" style="stroke:#2D3D4D;stroke:color(display-p3 0.1765 0.2392 0.3020);stroke-opacity:1;" stroke-width="1.5" stroke-linecap="round" stroke-linejoin="round"></path> <path d="M99.3176 84C103.957 84 107.718 80.2391 107.718 75.6C107.718 70.9608 103.957 67.2 99.3176 67.2C94.6784 67.2 90.9176 70.9608 90.9176 75.6C90.9176 80.2391 94.6784 84 99.3176 84Z" stroke="#2D3D4D" style="stroke:#2D3D4D;stroke:color(display-p3 0.1765 0.2392 0.3020);stroke-opacity:1;" stroke-width="1.5" stroke-linecap="round" stroke-linejoin="round"></path> </g> </g> <defs> <clipPath id="clip0_12517_12636"> <rect width="168" height="168" fill="white" style="fill:white;fill-opacity:1;"></rect> </clipPath> </defs> </svg>