<svg viewBox="0 0 168 168" fill="none" xmlns="http://www.w3.org/2000/svg"> <g clip-path="url(#clip0_12517_12508)"> <mask id="mask0_12517_12508" style="mask-type:luminance" maskUnits="userSpaceOnUse" x="0" y="0" width="258" height="168"> <path d="M257.727 0H0V168H257.727V0Z" fill="white" style="fill:white;fill-opacity:1;"></path> </mask> <g mask="url(#mask0_12517_12508)"> <path d="M92.8739 139.94H145.298M92.8739 139.94C90.2958 139.94 84.108 139.94 79.983 139.94C75.8573 139.94 75.0173 136.638 75.1129 134.987M92.8739 139.94C92.8739 141.786 92.8739 146.175 92.8739 148.972C92.8739 151.769 90.7728 152.274 89.7226 152.177C87.526 152.177 81.0354 152.177 78.5147 152.177C75.994 152.177 75.1129 151.491 75.1129 147.224V134.987M145.298 139.94H158.189C159.812 139.94 163.059 138.95 163.059 134.987M145.298 139.94V146.952C145.298 147.133 145.311 147.313 145.351 147.49C145.73 149.205 147.124 152.177 150.168 152.177C153.17 152.177 156.909 152.177 158.707 152.177C158.934 152.177 159.16 152.156 159.378 152.094C160.78 151.69 163.059 150.465 163.059 148.098C163.059 145.535 163.059 138.289 163.059 134.987M75.1129 134.987C75.1129 129.84 75.1129 118.613 75.1129 114.884C75.1129 111.154 79.6964 108.668 81.9878 107.891M163.059 134.987C163.059 131.09 163.059 120.295 163.059 115.137C163.059 114.966 163.046 114.8 163.013 114.632C162.59 112.483 160.994 108.774 157.485 108.025M157.485 108.025C155.428 102.251 151.084 90.1185 150.168 87.7877C149.331 85.6586 146.995 84.502 145.651 84.0956C145.418 84.025 145.177 84 144.933 84C138.064 84 128.387 84 119.229 84C106.193 84 94.2099 84 92.8739 84C90.8757 84 90.0386 85.3291 89.7939 86.2489C89.7285 86.4932 89.6785 86.7423 89.5925 86.9799L81.9878 107.891M157.485 108.025C157.077 107.938 156.644 107.891 156.184 107.891C155.142 107.891 151.924 107.891 147.303 107.891M81.9878 107.891C93.3001 107.891 110.5 107.891 125.531 107.891M125.531 107.891C125.913 104.201 128.625 96.8197 136.417 96.8197C144.209 96.8197 146.92 104.201 147.303 107.891M125.531 107.891C133.937 107.891 141.664 107.891 147.303 107.891M110.348 121.585H127.25M110.348 127.704H127.25M150.438 129.452H142.448C140.7 129.452 139.282 128.035 139.282 126.289V122.708C139.282 120.962 140.7 119.546 142.448 119.546H150.438C152.187 119.546 153.605 120.962 153.605 122.708V126.289C153.605 128.035 152.187 129.452 150.438 129.452ZM99.4622 122.708V126.289C99.4622 128.035 98.0446 129.452 96.2963 129.452H88.0184C86.2701 129.452 84.8525 128.035 84.8525 126.289V122.708C84.8525 120.962 86.2701 119.546 88.0184 119.546H96.2963C98.0446 119.546 99.4622 120.962 99.4622 122.708Z" stroke="#2D3D4D" style="stroke:#2D3D4D;stroke:color(display-p3 0.1765 0.2392 0.3020);stroke-opacity:1;" stroke-width="1.5" stroke-linecap="round" stroke-linejoin="round"></path> <path d="M-3.953 153.177H42.1611H198.635" stroke="#2D3D4D" style="stroke:#2D3D4D;stroke:color(display-p3 0.1765 0.2392 0.3020);stroke-opacity:1;" stroke-width="1.5"></path> <path d="M-3.45811 46.6869H134.4L104.259 -3.95288M-5.92944 60.4632H20.6254V90.5139M20.6254 90.5139V120.565H26.5866H-5.92944M20.6254 90.5139H-5.92944" stroke="#2D3D4D" style="stroke:#2D3D4D;stroke:color(display-p3 0.1765 0.2392 0.3020);stroke-opacity:1;" stroke-width="1.5"></path> <path d="M42.4941 90.9177V69.1765L48.4235 72.6093V86.3406L42.4941 90.9177Z" stroke="#2D3D4D" style="stroke:#2D3D4D;stroke:color(display-p3 0.1765 0.2392 0.3020);stroke-opacity:1;" stroke-width="1.5"></path> <path d="M53.3647 73.1295H48.4235V85.9766H53.3647V73.1295Z" stroke="#2D3D4D" style="stroke:#2D3D4D;stroke:color(display-p3 0.1765 0.2392 0.3020);stroke-opacity:1;" stroke-width="1.5"></path> <path d="M53.3647 75.106H65.2235V83.0118H53.3647V75.106Z" stroke="#2D3D4D" style="stroke:#2D3D4D;stroke:color(display-p3 0.1765 0.2392 0.3020);stroke-opacity:1;" stroke-width="1.5"></path> <path d="M42.4941 47.4353V152.188" stroke="#2D3D4D" style="stroke:#2D3D4D;stroke:color(display-p3 0.1765 0.2392 0.3020);stroke-opacity:1;" stroke-width="1.5"></path> </g> </g> <defs> <clipPath id="clip0_12517_12508"> <rect width="168" height="168" fill="white" style="fill:white;fill-opacity:1;"></rect> </clipPath> </defs> </svg>