<svg viewBox="0 0 168 168" fill="none" xmlns="http://www.w3.org/2000/svg"> <g clip-path="url(#clip0_12517_12577)"> <path d="M43.4824 46.447H21.534L16.8 70.3968H21.534M21.534 70.3968H43.4824M21.534 70.3968V164.047" stroke="#2D3D4D" style="stroke:#2D3D4D;stroke:color(display-p3 0.1765 0.2392 0.3020);stroke-opacity:1;" stroke-width="1.5"></path> <path d="M20.7529 126.494H1.97647" stroke="#2D3D4D" style="stroke:#2D3D4D;stroke:color(display-p3 0.1765 0.2392 0.3020);stroke-opacity:1;" stroke-width="1.5"></path> <path d="M0 164.047H223.341" stroke="#2D3D4D" style="stroke:#2D3D4D;stroke:color(display-p3 0.1765 0.2392 0.3020);stroke-opacity:1;" stroke-width="1.5"></path> <path d="M103.564 124.518V122.26H99.5193L102.484 118.693C103.234 117.805 103.765 116.686 103.765 115.471C103.765 113.214 102.008 111.671 99.9032 111.671C97.7809 111.671 96.2063 113.098 95.8588 115.393L97.9455 115.799C98.092 114.718 98.8416 113.966 99.8122 113.966C100.837 113.966 101.532 114.622 101.532 115.471C101.532 116.049 101.221 116.609 100.8 117.13L95.9134 123.303V124.518H103.564Z" fill="#2D3D4D" style="fill:#2D3D4D;fill:color(display-p3 0.1765 0.2392 0.3020);fill-opacity:1;"></path> <path d="M115.626 117.842C116.571 117.842 117.29 118.532 117.29 119.781V124.518H119.576V119.539C119.576 116.984 118.31 115.624 116.175 115.624C115.475 115.624 114.228 115.828 113.396 117.264C112.905 116.201 111.979 115.716 110.58 115.642C109.749 115.642 108.539 116.033 108.047 117.096V115.81H105.741V124.518H108.047V119.875C108.047 118.383 108.955 117.842 109.9 117.842C110.807 117.842 111.507 118.513 111.525 119.726V124.518H113.831V119.875C113.831 118.551 114.587 117.842 115.626 117.842Z" fill="#2D3D4D" style="fill:#2D3D4D;fill:color(display-p3 0.1765 0.2392 0.3020);fill-opacity:1;"></path> <path d="M64.2353 61.2706V57.8117M66.4941 61.2706V55.9493M69.0352 61.2706V54.3529M71.2941 61.2706V55.9493M74.1176 61.2706V57.8117" stroke="#2D3D4D" style="stroke:#2D3D4D;stroke:color(display-p3 0.1765 0.2392 0.3020);stroke-opacity:1;" stroke-width="1.5" stroke-linecap="round" stroke-linejoin="round"></path> <path d="M69.1765 67.1999C73.5428 67.1999 77.0823 63.6604 77.0823 59.2941C77.0823 54.9278 73.5428 51.3882 69.1765 51.3882C64.8102 51.3882 61.2706 54.9278 61.2706 59.2941C61.2706 63.6604 64.8102 67.1999 69.1765 67.1999Z" stroke="#2D3D4D" style="stroke:#2D3D4D;stroke:color(display-p3 0.1765 0.2392 0.3020);stroke-opacity:1;" stroke-width="1.5"></path> <path d="M69.1765 70.1648C75.1801 70.1648 80.0471 65.2978 80.0471 59.2942C80.0471 53.2905 75.1801 48.4236 69.1765 48.4236C63.1728 48.4236 58.3059 53.2905 58.3059 59.2942C58.3059 65.2978 63.1728 70.1648 69.1765 70.1648Z" stroke="#2D3D4D" style="stroke:#2D3D4D;stroke:color(display-p3 0.1765 0.2392 0.3020);stroke-opacity:1;" stroke-width="1.5"></path> <path d="M77.0824 59.2941H80.0471" stroke="#2D3D4D" style="stroke:#2D3D4D;stroke:color(display-p3 0.1765 0.2392 0.3020);stroke-opacity:1;" stroke-width="1.5"></path> <path d="M58.3059 59.2941H60.2823" stroke="#2D3D4D" style="stroke:#2D3D4D;stroke:color(display-p3 0.1765 0.2392 0.3020);stroke-opacity:1;" stroke-width="1.5"></path> <path d="M68.1882 67.2V69.1764" stroke="#2D3D4D" style="stroke:#2D3D4D;stroke:color(display-p3 0.1765 0.2392 0.3020);stroke-opacity:1;" stroke-width="1.5"></path> <path d="M68.1882 48.4236V51.3883" stroke="#2D3D4D" style="stroke:#2D3D4D;stroke:color(display-p3 0.1765 0.2392 0.3020);stroke-opacity:1;" stroke-width="1.5"></path> <path fill-rule="evenodd" clip-rule="evenodd" d="M87.9529 80.8081V80.0471H89.9291V80.8081H87.9529ZM87.9529 83.8519V82.33H89.9291V83.8519H87.9529ZM87.9529 86.8956V85.3737H89.9291V86.8956H87.9529ZM87.9529 89.9393V88.4175L89.9291 88.4175V89.9393H87.9529ZM87.9529 92.9831V91.4612H89.9291V92.9831H87.9529ZM87.9529 96.0269V94.505H89.9291V96.0269H87.9529ZM87.953 99.0707L87.9529 97.5488H89.9291V99.0707H87.953ZM87.953 102.114V100.593H89.9292V102.114H87.953ZM87.953 105.158V103.636H89.9292V105.158H87.953ZM87.953 108.202V106.68H89.9292V108.202L87.953 108.202ZM87.953 111.246V109.724H89.9292V111.246H87.953ZM87.953 114.29V112.768H89.9292V114.29H87.953ZM87.953 117.334V115.811H89.9292V117.334H87.953ZM87.9532 120.377L87.953 118.855H89.9292V120.377H87.9532ZM87.9532 123.421V121.899H89.9293V123.421H87.9532ZM87.9532 126.465V124.943H89.9293V126.465H87.9532ZM87.9532 129.509V127.987H89.9293V129.509H87.9532ZM87.9532 132.552V131.03H89.9293V132.552H87.9532ZM87.9532 135.596V134.074H89.9293V135.596H87.9532ZM87.9532 138.64V137.118H89.9293V138.64H87.9532ZM87.9533 141.683L87.9532 140.162H89.9293V141.683H87.9533ZM87.9533 144.727V143.205H89.9294V144.727H87.9533ZM87.9533 147.771V146.249H89.9294V147.771H87.9533ZM87.9533 150.815V149.293H89.9294V150.815H87.9533ZM87.9533 153.858V152.337H89.9294V153.858H87.9533ZM87.9533 156.141V155.381H89.9294V156.141H87.9533Z" fill="#2D3D4D" style="fill:#2D3D4D;fill:color(display-p3 0.1765 0.2392 0.3020);fill-opacity:1;"></path> <path fill-rule="evenodd" clip-rule="evenodd" d="M83.0118 78.0706H95.8588V80.047H83.0118V78.0706Z" fill="#2D3D4D" style="fill:#2D3D4D;fill:color(display-p3 0.1765 0.2392 0.3020);fill-opacity:1;"></path> <path fill-rule="evenodd" clip-rule="evenodd" d="M83.0118 155.153H95.8588V157.129H83.0118V155.153Z" fill="#2D3D4D" style="fill:#2D3D4D;fill:color(display-p3 0.1765 0.2392 0.3020);fill-opacity:1;"></path> <path fill-rule="evenodd" clip-rule="evenodd" d="M151.2 128.471H180.847V80.0471H151.2V128.471Z" stroke="#2D3D4D" style="stroke:#2D3D4D;stroke:color(display-p3 0.1765 0.2392 0.3020);stroke-opacity:1;" stroke-width="1.5" stroke-linecap="square"></path> <path d="M178.871 104.753H152.188" stroke="#2D3D4D" style="stroke:#2D3D4D;stroke:color(display-p3 0.1765 0.2392 0.3020);stroke-opacity:1;" stroke-width="1.5"></path> <path d="M143.294 128.471H187.765" stroke="#2D3D4D" style="stroke:#2D3D4D;stroke:color(display-p3 0.1765 0.2392 0.3020);stroke-opacity:1;" stroke-width="1.5"></path> <path d="M43.4824 0V164.047" stroke="#2D3D4D" style="stroke:#2D3D4D;stroke:color(display-p3 0.1765 0.2392 0.3020);stroke-opacity:1;" stroke-width="1.5"></path> </g> <defs> <clipPath id="clip0_12517_12577"> <rect width="168" height="168" fill="white" style="fill:white;fill-opacity:1;"></rect> </clipPath> </defs> </svg>