<svg viewBox="0 0 168 168" fill="none" xmlns="http://www.w3.org/2000/svg"> <g clip-path="url(#clip0_12517_12548)"> <mask id="mask0_12517_12548" style="mask-type:luminance" maskUnits="userSpaceOnUse" x="0" y="0" width="258" height="168"> <path d="M257.727 0H0V168H257.727V0Z" fill="white" style="fill:white;fill-opacity:1;"></path> </mask> <g mask="url(#mask0_12517_12548)"> <path d="M82.8361 60.2823V58.3727H79.297L81.891 55.353C82.548 54.6022 83.0118 53.6555 83.0118 52.6272C83.0118 50.7175 81.4746 49.4117 79.6332 49.4117C77.7758 49.4117 76.3983 50.6196 76.0942 52.5619L77.9195 52.9047C78.0478 51.9907 78.7041 51.3541 79.553 51.3541C80.45 51.3541 81.0581 51.909 81.0581 52.6272C81.0581 53.1169 80.7861 53.5902 80.4179 54.0309L76.1423 59.254V60.2823H82.8361Z" fill="#2D3D4D" style="fill:#2D3D4D;fill:color(display-p3 0.1765 0.2392 0.3020);fill-opacity:1;"></path> <path d="M92.7549 54.3488C93.4974 54.3488 94.0614 54.962 94.0614 56.0725V60.2823H95.8589V55.8571C95.8589 53.5864 94.8634 52.3765 93.1857 52.3765C92.6359 52.3765 91.656 52.5588 91.0028 53.835C90.6166 52.8903 89.889 52.4593 88.7901 52.3931C88.1362 52.3931 87.1861 52.7412 86.7999 53.6859V52.5422H84.9883V60.2823H86.7999V56.1554C86.7999 54.8294 87.5127 54.3488 88.2552 54.3488C88.9679 54.3488 89.5177 54.9454 89.5326 56.0228V60.2823H91.3443V56.1554C91.3443 54.9787 91.938 54.3488 92.7549 54.3488Z" fill="#2D3D4D" style="fill:#2D3D4D;fill:color(display-p3 0.1765 0.2392 0.3020);fill-opacity:1;"></path> <path fill-rule="evenodd" clip-rule="evenodd" d="M129.459 108.706H148.235V76.0941H129.459V108.706Z" stroke="#2D3D4D" style="stroke:#2D3D4D;stroke:color(display-p3 0.1765 0.2392 0.3020);stroke-opacity:1;" stroke-width="1.5" stroke-linecap="square"></path> <path d="M148.235 92.894H129.459" stroke="#2D3D4D" style="stroke:#2D3D4D;stroke:color(display-p3 0.1765 0.2392 0.3020);stroke-opacity:1;" stroke-width="1.5"></path> <path fill-rule="evenodd" clip-rule="evenodd" d="M156.141 108.706H175.906V76.0941H156.141V108.706Z" stroke="#2D3D4D" style="stroke:#2D3D4D;stroke:color(display-p3 0.1765 0.2392 0.3020);stroke-opacity:1;" stroke-width="1.5" stroke-linecap="square"></path> <path d="M174.918 92.894H157.129" stroke="#2D3D4D" style="stroke:#2D3D4D;stroke:color(display-p3 0.1765 0.2392 0.3020);stroke-opacity:1;" stroke-width="1.5"></path> <path d="M123.529 108.706H180.847" stroke="#2D3D4D" style="stroke:#2D3D4D;stroke:color(display-p3 0.1765 0.2392 0.3020);stroke-opacity:1;" stroke-width="1.5"></path> <path d="M52.3765 93.8823V74.1176L57.3177 77.2384V89.7215L52.3765 93.8823Z" stroke="#2D3D4D" style="stroke:#2D3D4D;stroke:color(display-p3 0.1765 0.2392 0.3020);stroke-opacity:1;" stroke-width="1.5"></path> <path d="M62.2589 77.0823H57.3177V89.9293H62.2589V77.0823Z" stroke="#2D3D4D" style="stroke:#2D3D4D;stroke:color(display-p3 0.1765 0.2392 0.3020);stroke-opacity:1;" stroke-width="1.5"></path> <path d="M62.2589 79.0587H73.1295V86.9646H62.2589V79.0587Z" stroke="#2D3D4D" style="stroke:#2D3D4D;stroke:color(display-p3 0.1765 0.2392 0.3020);stroke-opacity:1;" stroke-width="1.5"></path> <path d="M-17.7882 36.5647H52.3885L56.3295 55.9886H52.3885M52.3885 55.9886C24.9828 55.9886 9.61748 55.9886 -17.7882 55.9886M52.3885 55.9886V131.435" stroke="#2D3D4D" style="stroke:#2D3D4D;stroke:color(display-p3 0.1765 0.2392 0.3020);stroke-opacity:1;" stroke-width="1.5"></path> <path d="M188.753 36.5647H107.684L103.765 56.0868H107.684M107.684 56.0868H188.753M107.684 56.0868V132.424" stroke="#2D3D4D" style="stroke:#2D3D4D;stroke:color(display-p3 0.1765 0.2392 0.3020);stroke-opacity:1;" stroke-width="1.5"></path> <path d="M130.447 68.1882H71.153" stroke="#2D3D4D" style="stroke:#2D3D4D;stroke:color(display-p3 0.1765 0.2392 0.3020);stroke-opacity:1;" stroke-width="1.5" stroke-linejoin="round" stroke-dasharray="1.91 1.91"></path> <path d="M71.153 63.2469V73.1293" stroke="#2D3D4D" style="stroke:#2D3D4D;stroke:color(display-p3 0.1765 0.2392 0.3020);stroke-opacity:1;" stroke-width="1.5"></path> <path d="M131.435 63.2469V73.1293" stroke="#2D3D4D" style="stroke:#2D3D4D;stroke:color(display-p3 0.1765 0.2392 0.3020);stroke-opacity:1;" stroke-width="1.5"></path> <path fill-rule="evenodd" clip-rule="evenodd" d="M-12.847 108.706H5.92945V76.0941H-12.847V108.706Z" stroke="#2D3D4D" style="stroke:#2D3D4D;stroke:color(display-p3 0.1765 0.2392 0.3020);stroke-opacity:1;" stroke-width="1.5" stroke-linecap="square"></path> <path d="M5.92945 92.894H-12.847" stroke="#2D3D4D" style="stroke:#2D3D4D;stroke:color(display-p3 0.1765 0.2392 0.3020);stroke-opacity:1;" stroke-width="1.5"></path> <path fill-rule="evenodd" clip-rule="evenodd" d="M13.8353 108.706H33.6V76.0941H13.8353V108.706Z" stroke="#2D3D4D" style="stroke:#2D3D4D;stroke:color(display-p3 0.1765 0.2392 0.3020);stroke-opacity:1;" stroke-width="1.5" stroke-linecap="square"></path> <path d="M32.6118 92.894H14.8236" stroke="#2D3D4D" style="stroke:#2D3D4D;stroke:color(display-p3 0.1765 0.2392 0.3020);stroke-opacity:1;" stroke-width="1.5"></path> <path d="M-18.7764 108.706H38.5412" stroke="#2D3D4D" style="stroke:#2D3D4D;stroke:color(display-p3 0.1765 0.2392 0.3020);stroke-opacity:1;" stroke-width="1.5"></path> <path d="M-20.7529 132.423H184.8" stroke="#2D3D4D" style="stroke:#2D3D4D;stroke:color(display-p3 0.1765 0.2392 0.3020);stroke-opacity:1;" stroke-width="1.5"></path> </g> </g> <defs> <clipPath id="clip0_12517_12548"> <rect width="168" height="168" fill="white" style="fill:white;fill-opacity:1;"></rect> </clipPath> </defs> </svg>