<svg viewBox="0 0 168 168" fill="none" xmlns="http://www.w3.org/2000/svg"> <g clip-path="url(#clip0_12517_12622)"> <mask id="mask0_12517_12622" style="mask-type:luminance" maskUnits="userSpaceOnUse" x="0" y="0" width="258" height="168"> <path d="M257.727 0H0V168H257.727V0Z" fill="white" style="fill:white;fill-opacity:1;"></path> </mask> <g mask="url(#mask0_12517_12622)"> <path d="M131.435 112.659H140.627M140.627 112.659V53.3646H219.415V112.659M140.627 112.659H219.415M227.294 112.659H219.415" stroke="#2D3D4D" style="stroke:#2D3D4D;stroke:color(display-p3 0.1765 0.2392 0.3020);stroke-opacity:1;" stroke-width="1.5" stroke-linecap="round" stroke-linejoin="round"></path> <path d="M180.026 53.3646V112.659M140.824 84.196H218.4" stroke="#2D3D4D" style="stroke:#2D3D4D;stroke:color(display-p3 0.1765 0.2392 0.3020);stroke-opacity:1;" stroke-width="1.5" stroke-linecap="round" stroke-linejoin="round"></path> <path d="M57.3177 52.3765H-0.98822V169.976H57.3177V52.3765Z" stroke="#2D3D4D" style="stroke:#2D3D4D;stroke:color(display-p3 0.1765 0.2392 0.3020);stroke-opacity:1;" stroke-width="1.5" stroke-linecap="round" stroke-linejoin="round"></path> <path d="M39.5294 66.2117H14.8235V97.8352H39.5294V66.2117Z" stroke="#2D3D4D" style="stroke:#2D3D4D;stroke:color(display-p3 0.1765 0.2392 0.3020);stroke-opacity:1;" stroke-width="1.5" stroke-linecap="round" stroke-linejoin="round"></path> <path d="M39.5294 110.682H14.8235V153.176H39.5294V110.682Z" stroke="#2D3D4D" style="stroke:#2D3D4D;stroke:color(display-p3 0.1765 0.2392 0.3020);stroke-opacity:1;" stroke-width="1.5" stroke-linecap="round" stroke-linejoin="round"></path> <path d="M98.8236 111.671C119.018 111.671 135.388 95.3 135.388 75.1058C135.388 54.9117 119.018 38.5411 98.8236 38.5411C78.6294 38.5411 62.2589 54.9117 62.2589 75.1058C62.2589 95.3 78.6294 111.671 98.8236 111.671Z" fill="white" fill-opacity="0.6" stroke="#2D3D4D" style="fill:white;fill-opacity:0.6;stroke:#2D3D4D;stroke:color(display-p3 0.1765 0.2392 0.3020);stroke-opacity:1;" stroke-width="1.5" stroke-linecap="round" stroke-linejoin="round" stroke-dasharray="4.79 9.57"></path> <path d="M99.3176 79.0588C101.228 79.0588 102.776 77.5102 102.776 75.5999C102.776 73.6897 101.228 72.1411 99.3176 72.1411C97.4074 72.1411 95.8588 73.6897 95.8588 75.5999C95.8588 77.5102 97.4074 79.0588 99.3176 79.0588Z" stroke="#2D3D4D" style="stroke:#2D3D4D;stroke:color(display-p3 0.1765 0.2392 0.3020);stroke-opacity:1;" stroke-width="1.5" stroke-linecap="round" stroke-linejoin="round"></path> <path d="M99.3177 89.9293C107.232 89.9293 113.647 83.5138 113.647 75.5999C113.647 67.686 107.232 61.2705 99.3177 61.2705C91.4038 61.2705 84.9883 67.686 84.9883 75.5999C84.9883 83.5138 91.4038 89.9293 99.3177 89.9293Z" stroke="#2D3D4D" style="stroke:#2D3D4D;stroke:color(display-p3 0.1765 0.2392 0.3020);stroke-opacity:1;" stroke-width="1.5" stroke-linecap="round" stroke-linejoin="round"></path> <path d="M99.3177 84C103.957 84 107.718 80.2391 107.718 75.6C107.718 70.9608 103.957 67.2 99.3177 67.2C94.6785 67.2 90.9177 70.9608 90.9177 75.6C90.9177 80.2391 94.6785 84 99.3177 84Z" stroke="#2D3D4D" style="stroke:#2D3D4D;stroke:color(display-p3 0.1765 0.2392 0.3020);stroke-opacity:1;" stroke-width="1.5" stroke-linecap="round" stroke-linejoin="round"></path> </g> </g> <defs> <clipPath id="clip0_12517_12622"> <rect width="168" height="168" fill="white" style="fill:white;fill-opacity:1;"></rect> </clipPath> </defs> </svg>