<svg viewBox="0 0 168 168" fill="none" xmlns="http://www.w3.org/2000/svg"> <g clip-path="url(#clip0_12517_12601)"> <mask id="mask0_12517_12601" style="mask-type:luminance" maskUnits="userSpaceOnUse" x="0" y="0" width="258" height="168"> <path d="M257.727 0H0V168H257.727V0Z" fill="white" style="fill:white;fill-opacity:1;"></path> </mask> <g mask="url(#mask0_12517_12601)"> <path d="M105.565 58.3059V56.3962H102.026L104.62 53.3765C105.277 52.6258 105.741 51.6791 105.741 50.6508C105.741 48.7411 104.204 47.4353 102.363 47.4353C100.506 47.4353 99.1283 48.6432 98.8235 50.5855L100.649 50.9282C100.778 50.0142 101.434 49.3776 102.283 49.3776C103.179 49.3776 103.788 49.9326 103.788 50.6508C103.788 51.1404 103.515 51.6138 103.147 52.0545L98.872 57.2776V58.3059H105.565Z" fill="#2D3D4D" style="fill:#2D3D4D;fill:color(display-p3 0.1765 0.2392 0.3020);fill-opacity:1;"></path> <path d="M115.484 52.3724C116.227 52.3724 116.792 52.9856 116.792 54.096V58.3059H118.588V53.8806C118.588 51.6099 117.594 50.4 115.915 50.4C115.366 50.4 114.386 50.5823 113.732 51.8586C113.347 50.9139 112.618 50.4829 111.519 50.4166C110.866 50.4166 109.916 50.7647 109.529 51.7094V50.5658H107.718V58.3059H109.529V54.1789C109.529 52.853 110.242 52.3724 110.985 52.3724C111.698 52.3724 112.247 52.969 112.262 54.0463V58.3059H114.074V54.1789C114.074 53.0022 114.668 52.3724 115.484 52.3724Z" fill="#2D3D4D" style="fill:#2D3D4D;fill:color(display-p3 0.1765 0.2392 0.3020);fill-opacity:1;"></path> <path d="M56.3294 92.8941V73.1294L61.2706 76.2502V88.7332L56.3294 92.8941Z" stroke="#2D3D4D" style="stroke:#2D3D4D;stroke:color(display-p3 0.1765 0.2392 0.3020);stroke-opacity:1;" stroke-width="1.5"></path> <path d="M67.2 76.0941H61.2706V88.9412H67.2V76.0941Z" stroke="#2D3D4D" style="stroke:#2D3D4D;stroke:color(display-p3 0.1765 0.2392 0.3020);stroke-opacity:1;" stroke-width="1.5"></path> <path d="M67.2 78.0706H78.0706V85.9764H67.2V78.0706Z" stroke="#2D3D4D" style="stroke:#2D3D4D;stroke:color(display-p3 0.1765 0.2392 0.3020);stroke-opacity:1;" stroke-width="1.5"></path> <path d="M208.518 34.5883H153.23L149.224 54.5128H153.23M153.23 54.5128H208.518M153.23 54.5128V132.424" stroke="#2D3D4D" style="stroke:#2D3D4D;stroke:color(display-p3 0.1765 0.2392 0.3020);stroke-opacity:1;" stroke-width="1.5"></path> <path d="M0.988251 34.5883H56.2756L60.2824 54.5128H56.2756M56.2756 54.5128H0.988251M56.2756 54.5128V132.424" stroke="#2D3D4D" style="stroke:#2D3D4D;stroke:color(display-p3 0.1765 0.2392 0.3020);stroke-opacity:1;" stroke-width="1.5"></path> <path d="M37.4607 111.671V92.4002M37.4607 92.4002V73.1294H13.8025V111.671M37.4607 92.4002H13.8025M41.5059 111.671H13.8025M13.8025 111.671H9.88235" stroke="#2D3D4D" style="stroke:#2D3D4D;stroke:color(display-p3 0.1765 0.2392 0.3020);stroke-opacity:1;" stroke-width="1.5"></path> <path d="M-6.91763 132.424L205.553 132.424" stroke="#2D3D4D" style="stroke:#2D3D4D;stroke:color(display-p3 0.1765 0.2392 0.3020);stroke-opacity:1;" stroke-width="1.5"></path> <path d="M141.318 67.2001H77.0824" stroke="#2D3D4D" style="stroke:#2D3D4D;stroke:color(display-p3 0.1765 0.2392 0.3020);stroke-opacity:1;" stroke-width="1.5" stroke-linejoin="round" stroke-dasharray="1.91 1.91"></path> <path d="M77.0824 61.2706V71.153" stroke="#2D3D4D" style="stroke:#2D3D4D;stroke:color(display-p3 0.1765 0.2392 0.3020);stroke-opacity:1;" stroke-width="1.5"></path> <path d="M141.318 61.2706V71.153" stroke="#2D3D4D" style="stroke:#2D3D4D;stroke:color(display-p3 0.1765 0.2392 0.3020);stroke-opacity:1;" stroke-width="1.5"></path> </g> </g> <defs> <clipPath id="clip0_12517_12601"> <rect width="168" height="168" fill="white" style="fill:white;fill-opacity:1;"></rect> </clipPath> </defs> </svg>