<svg viewBox="0 0 168 168" fill="none" xmlns="http://www.w3.org/2000/svg"> <g clip-path="url(#clip0_12517_12523)"> <mask id="mask0_12517_12523" style="mask-type:luminance" maskUnits="userSpaceOnUse" x="0" y="0" width="258" height="168"> <path d="M257.727 0H0V168H257.727V0Z" fill="white" style="fill:white;fill-opacity:1;"></path> </mask> <g mask="url(#mask0_12517_12523)"> <path d="M37.553 42.4939H15.6046L10.8707 66.4437H15.6046M15.6046 66.4437H37.553M15.6046 66.4437V160.094" stroke="#2D3D4D" style="stroke:#2D3D4D;stroke:color(display-p3 0.1765 0.2392 0.3020);stroke-opacity:1;" stroke-width="1.5"></path> <path d="M14.8236 122.541H-3.95285" stroke="#2D3D4D" style="stroke:#2D3D4D;stroke:color(display-p3 0.1765 0.2392 0.3020);stroke-opacity:1;" stroke-width="1.5"></path> <path d="M-5.92932 160.094H217.412" stroke="#2D3D4D" style="stroke:#2D3D4D;stroke:color(display-p3 0.1765 0.2392 0.3020);stroke-opacity:1;" stroke-width="1.5"></path> <path d="M97.6343 120.564V118.307H93.5899L96.5546 114.739C97.305 113.852 97.8354 112.733 97.8354 111.518C97.8354 109.261 96.0788 107.717 93.9739 107.717C91.8516 107.717 90.277 109.145 89.9295 111.44L92.0162 111.846C92.1627 110.765 92.9123 110.013 93.8828 110.013C94.9072 110.013 95.603 110.669 95.603 111.518C95.603 112.096 95.2919 112.656 94.8708 113.177L89.9841 119.35V120.564H97.6343Z" fill="#2D3D4D" style="fill:#2D3D4D;fill:color(display-p3 0.1765 0.2392 0.3020);fill-opacity:1;"></path> <path d="M109.697 113.889C110.642 113.889 111.36 114.579 111.36 115.828V120.565H113.647V115.586C113.647 113.031 112.381 111.67 110.245 111.67C109.546 111.67 108.299 111.875 107.467 113.311C106.975 112.248 106.05 111.763 104.651 111.689C103.819 111.689 102.609 112.08 102.118 113.143V111.857H99.8119V120.565H102.118V115.922C102.118 114.43 103.026 113.889 103.971 113.889C104.877 113.889 105.577 114.56 105.596 115.773V120.565H107.901V115.922C107.901 114.597 108.658 113.889 109.697 113.889Z" fill="#2D3D4D" style="fill:#2D3D4D;fill:color(display-p3 0.1765 0.2392 0.3020);fill-opacity:1;"></path> <path d="M58.306 106.729V103.27M60.5648 106.729V101.408M63.1059 106.729V99.8115M65.3648 106.729V101.408M68.1883 106.729V103.27" stroke="#2D3D4D" style="stroke:#2D3D4D;stroke:color(display-p3 0.1765 0.2392 0.3020);stroke-opacity:1;" stroke-width="1.5" stroke-linecap="round" stroke-linejoin="round"></path> <path d="M63.2471 112.659C67.6134 112.659 71.153 109.119 71.153 104.753C71.153 100.387 67.6134 96.8469 63.2471 96.8469C58.8808 96.8469 55.3413 100.387 55.3413 104.753C55.3413 109.119 58.8808 112.659 63.2471 112.659Z" stroke="#2D3D4D" style="stroke:#2D3D4D;stroke:color(display-p3 0.1765 0.2392 0.3020);stroke-opacity:1;" stroke-width="1.5"></path> <path d="M63.2471 115.623C69.2508 115.623 74.1177 110.756 74.1177 104.753C74.1177 98.7491 69.2508 93.8822 63.2471 93.8822C57.2435 93.8822 52.3766 98.7491 52.3766 104.753C52.3766 110.756 57.2435 115.623 63.2471 115.623Z" stroke="#2D3D4D" style="stroke:#2D3D4D;stroke:color(display-p3 0.1765 0.2392 0.3020);stroke-opacity:1;" stroke-width="1.5"></path> <path d="M71.153 104.753H74.1177" stroke="#2D3D4D" style="stroke:#2D3D4D;stroke:color(display-p3 0.1765 0.2392 0.3020);stroke-opacity:1;" stroke-width="1.5"></path> <path d="M52.3766 104.753H54.353" stroke="#2D3D4D" style="stroke:#2D3D4D;stroke:color(display-p3 0.1765 0.2392 0.3020);stroke-opacity:1;" stroke-width="1.5"></path> <path d="M62.2589 112.659V114.635" stroke="#2D3D4D" style="stroke:#2D3D4D;stroke:color(display-p3 0.1765 0.2392 0.3020);stroke-opacity:1;" stroke-width="1.5"></path> <path d="M62.2589 93.8822V96.8469" stroke="#2D3D4D" style="stroke:#2D3D4D;stroke:color(display-p3 0.1765 0.2392 0.3020);stroke-opacity:1;" stroke-width="1.5"></path> <path fill-rule="evenodd" clip-rule="evenodd" d="M82.0236 76.8549V76.094H83.9998V76.8549H82.0236ZM82.0236 79.8987V78.3768H83.9998V79.8987H82.0236ZM82.0236 82.9425V81.4206H83.9998V82.9425H82.0236ZM82.0236 85.9862V84.4644L83.9998 84.4643V85.9862H82.0236ZM82.0236 89.03V87.5081H83.9998V89.03H82.0236ZM82.0236 92.0738V90.5519H83.9998V92.0738H82.0236ZM82.0237 95.1176L82.0236 93.5957H83.9998V95.1176H82.0237ZM82.0237 98.1614V96.6395H83.9999V98.1614H82.0237ZM82.0237 101.205V99.6833H83.9999V101.205H82.0237ZM82.0237 104.249V102.727H83.9999V104.249L82.0237 104.249ZM82.0237 107.293V105.771H83.9999V107.293H82.0237ZM82.0237 110.336V108.815H83.9999V110.336H82.0237ZM82.0237 113.38V111.858H83.9999V113.38H82.0237ZM82.0238 116.424L82.0237 114.902H83.9999V116.424H82.0238ZM82.0238 119.467V117.946H84V119.467H82.0238ZM82.0238 122.511V120.99H84V122.511H82.0238ZM82.0238 125.555V124.034H84V125.555H82.0238ZM82.0238 128.599V127.077H84V128.599H82.0238ZM82.0238 131.642V130.121H84V131.642H82.0238ZM82.0238 134.686V133.165H84V134.686H82.0238ZM82.0239 137.73L82.0238 136.209H84V137.73H82.0239ZM82.0239 140.774V139.252H84.0001V140.774H82.0239ZM82.0239 143.818V142.296H84.0001V143.818H82.0239ZM82.0239 146.861V145.34H84.0001V146.861H82.0239ZM82.0239 149.905V148.384H84.0001V149.905H82.0239ZM82.0239 152.188V151.428H84.0001V152.188H82.0239Z" fill="#2D3D4D" style="fill:#2D3D4D;fill:color(display-p3 0.1765 0.2392 0.3020);fill-opacity:1;"></path> <path fill-rule="evenodd" clip-rule="evenodd" d="M77.0824 74.1174H89.9295V76.0939H77.0824V74.1174Z" fill="#2D3D4D" style="fill:#2D3D4D;fill:color(display-p3 0.1765 0.2392 0.3020);fill-opacity:1;"></path> <path fill-rule="evenodd" clip-rule="evenodd" d="M77.0824 151.2H89.9295V153.176H77.0824V151.2Z" fill="#2D3D4D" style="fill:#2D3D4D;fill:color(display-p3 0.1765 0.2392 0.3020);fill-opacity:1;"></path> <path fill-rule="evenodd" clip-rule="evenodd" d="M145.271 124.518H174.918V76.094H145.271V124.518Z" stroke="#2D3D4D" style="stroke:#2D3D4D;stroke:color(display-p3 0.1765 0.2392 0.3020);stroke-opacity:1;" stroke-width="1.5" stroke-linecap="square"></path> <path d="M172.941 100.8H146.259" stroke="#2D3D4D" style="stroke:#2D3D4D;stroke:color(display-p3 0.1765 0.2392 0.3020);stroke-opacity:1;" stroke-width="1.5"></path> <path d="M137.365 124.517H181.835" stroke="#2D3D4D" style="stroke:#2D3D4D;stroke:color(display-p3 0.1765 0.2392 0.3020);stroke-opacity:1;" stroke-width="1.5"></path> <path d="M37.553 -3.95312V160.094" stroke="#2D3D4D" style="stroke:#2D3D4D;stroke:color(display-p3 0.1765 0.2392 0.3020);stroke-opacity:1;" stroke-width="1.5"></path> </g> </g> <defs> <clipPath id="clip0_12517_12523"> <rect width="168" height="168" fill="white" style="fill:white;fill-opacity:1;"></rect> </clipPath> </defs> </svg>