<svg viewBox="0 0 168 168" fill="none" xmlns="http://www.w3.org/2000/svg"> <path d="M138.905 81.2211H124.787V135.556H40.3285V81.2211H26.4932L43.2109 64.5034V38.5622H60.505V47.2093L82.9873 24.7269L138.905 81.2211Z" stroke="#2D3D4D" style="stroke:#2D3D4D;stroke:color(display-p3 0.1765 0.2392 0.3020);stroke-opacity:1;" stroke-width="1.5" stroke-linecap="round" stroke-linejoin="round"></path> <path d="M77.3105 127.164C75.2779 127.164 71.5851 127.164 71.5851 127.164C69.5031 127.164 65.3499 127.416 65.3499 122.819C65.3499 116.131 65.4166 107.84 68.5396 107.214C72.8771 106.343 85.5125 107.714 89.3704 104.579C100.301 95.6986 104.464 93.609 112.792 93.609H123.635M93.9664 127.164H123.635" stroke="#2D3D4D" style="stroke:#2D3D4D;stroke:color(display-p3 0.1765 0.2392 0.3020);stroke-opacity:1;" stroke-width="1.5" stroke-linecap="round" stroke-linejoin="round"></path> <path d="M85.6609 135.115C90.0505 135.115 93.6089 131.557 93.6089 127.167C93.6089 122.778 90.0505 119.219 85.6609 119.219C81.2714 119.219 77.713 122.778 77.713 127.167C77.713 131.557 81.2714 135.115 85.6609 135.115Z" stroke="#2D3D4D" style="stroke:#2D3D4D;stroke:color(display-p3 0.1765 0.2392 0.3020);stroke-opacity:1;" stroke-width="1.5" stroke-linecap="round" stroke-linejoin="round"></path> </svg>