<svg viewBox="0 0 168 168" fill="none" xmlns="http://www.w3.org/2000/svg"> <g clip-path="url(#clip0_12517_12946)"> <path d="M102.281 15H118.687V46.1709H102.281V15Z" fill="white" style="fill:white;fill-opacity:1;"></path> <path d="M102.281 15V14.25C101.867 14.25 101.531 14.5858 101.531 15H102.281ZM118.687 15H119.437C119.437 14.5858 119.101 14.25 118.687 14.25V15ZM118.687 46.1709V46.9209C119.101 46.9209 119.437 46.5851 119.437 46.1709H118.687ZM102.281 46.1709H101.531C101.531 46.5851 101.867 46.9209 102.281 46.9209V46.1709ZM102.281 15V15.75H118.687V15V14.25H102.281V15ZM118.687 15H117.937V46.1709H118.687H119.437V15H118.687ZM118.687 46.1709V45.4209H102.281V46.1709V46.9209H118.687V46.1709ZM102.281 46.1709H103.031V15H102.281H101.531V46.1709H102.281Z" fill="#2D3D4D" style="fill:#2D3D4D;fill:color(display-p3 0.1765 0.2392 0.3020);fill-opacity:1;"></path> <path d="M99.0007 75.5V46.1703H121.969V57" stroke="#2D3D4D" style="stroke:#2D3D4D;stroke:color(display-p3 0.1765 0.2392 0.3020);stroke-opacity:1;" stroke-width="1.5" stroke-linecap="round" stroke-linejoin="round"></path> <path d="M103.103 31.406H110.485M117.868 31.406H110.485M110.485 31.406V15.8206" stroke="#2D3D4D" style="stroke:#2D3D4D;stroke:color(display-p3 0.1765 0.2392 0.3020);stroke-opacity:1;" stroke-width="1.5" stroke-linecap="round" stroke-linejoin="round"></path> <path d="M121.968 15H99" stroke="#2D3D4D" style="stroke:#2D3D4D;stroke:color(display-p3 0.1765 0.2392 0.3020);stroke-opacity:1;" stroke-width="1.5" stroke-linecap="round" stroke-linejoin="round"></path> <path d="M179 103H145.25V130M179 157H137H145.25V130M145.25 130H179" stroke="#2D3D4D" style="stroke:#2D3D4D;stroke:color(display-p3 0.1765 0.2392 0.3020);stroke-opacity:1;" stroke-width="1.5"></path> <path d="M16 179V142.077L129.827 50.6923V11H201" stroke="#2D3D4D" style="stroke:#2D3D4D;stroke:color(display-p3 0.1765 0.2392 0.3020);stroke-opacity:1;" stroke-width="1.5"></path> <path d="M16 -1V174.888" stroke="#2D3D4D" style="stroke:#2D3D4D;stroke:color(display-p3 0.1765 0.2392 0.3020);stroke-opacity:1;" stroke-width="2" stroke-linejoin="round" stroke-dasharray="2 2"></path> <path d="M130 -1V174.888" stroke="#2D3D4D" style="stroke:#2D3D4D;stroke:color(display-p3 0.1765 0.2392 0.3020);stroke-opacity:1;" stroke-width="2" stroke-linejoin="round" stroke-dasharray="2 2"></path> <path d="M54 -1V174.888" stroke="#2D3D4D" style="stroke:#2D3D4D;stroke:color(display-p3 0.1765 0.2392 0.3020);stroke-opacity:1;" stroke-width="2" stroke-linejoin="round" stroke-dasharray="2 2"></path> </g> <defs> <clipPath id="clip0_12517_12946"> <rect width="168" height="168" fill="white" style="fill:white;fill-opacity:1;"></rect> </clipPath> </defs> </svg>