<svg viewBox="0 0 168 168" fill="none" xmlns="http://www.w3.org/2000/svg"> <path fill-rule="evenodd" clip-rule="evenodd" d="M31.5 31.5H136.5V136.5H31.5V31.5Z" stroke="#2D3D4D" style="stroke:#2D3D4D;stroke:color(display-p3 0.1765 0.2392 0.3020);stroke-opacity:1;" stroke-width="1.5" stroke-linecap="round" stroke-linejoin="round"></path> <path d="M38.4997 57.1665H129.499M31.5 50.1677H136.5M38.4997 65.3333H129.499V128.333H38.4997V65.3333ZM68.8335 43.1671H99.1665V38.5006H68.8335V43.1671Z" stroke="#2D3D4D" style="stroke:#2D3D4D;stroke:color(display-p3 0.1765 0.2392 0.3020);stroke-opacity:1;" stroke-width="1.5" stroke-linecap="round" stroke-linejoin="round"></path> <path d="M113.167 43.1661C114.455 43.1661 115.5 42.1215 115.5 40.8329C115.5 39.5443 114.455 38.4997 113.167 38.4997C111.878 38.4997 110.834 39.5443 110.834 40.8329C110.834 42.1215 111.878 43.1661 113.167 43.1661Z" stroke="#2D3D4D" style="stroke:#2D3D4D;stroke:color(display-p3 0.1765 0.2392 0.3020);stroke-opacity:1;" stroke-width="1.5" stroke-linecap="round" stroke-linejoin="round"></path> <path d="M126 43.1661C127.289 43.1661 128.333 42.1215 128.333 40.8329C128.333 39.5443 127.289 38.4997 126 38.4997C124.711 38.4997 123.667 39.5443 123.667 40.8329C123.667 42.1215 124.711 43.1661 126 43.1661Z" stroke="#2D3D4D" style="stroke:#2D3D4D;stroke:color(display-p3 0.1765 0.2392 0.3020);stroke-opacity:1;" stroke-width="1.5" stroke-linecap="round" stroke-linejoin="round"></path> <path d="M41.9999 43.1661C43.2885 43.1661 44.3332 42.1215 44.3332 40.8329C44.3332 39.5443 43.2885 38.4997 41.9999 38.4997C40.7113 38.4997 39.6667 39.5443 39.6667 40.8329C39.6667 42.1215 40.7113 43.1661 41.9999 43.1661Z" stroke="#2D3D4D" style="stroke:#2D3D4D;stroke:color(display-p3 0.1765 0.2392 0.3020);stroke-opacity:1;" stroke-width="1.5" stroke-linecap="round" stroke-linejoin="round"></path> <path d="M54.8332 43.1661C56.1218 43.1661 57.1665 42.1215 57.1665 40.8329C57.1665 39.5443 56.1218 38.4997 54.8332 38.4997C53.5446 38.4997 52.5 39.5443 52.5 40.8329C52.5 42.1215 53.5446 43.1661 54.8332 43.1661Z" stroke="#2D3D4D" style="stroke:#2D3D4D;stroke:color(display-p3 0.1765 0.2392 0.3020);stroke-opacity:1;" stroke-width="1.5" stroke-linecap="round" stroke-linejoin="round"></path> </svg>