<svg viewBox="0 0 168 168" fill="none" xmlns="http://www.w3.org/2000/svg"> <g clip-path="url(#clip0_12517_13107)"> <path d="M27.6327 62.8496H44.0384V94.0205H27.6327V62.8496Z" fill="white" style="fill:white;fill-opacity:1;"></path> <path d="M27.6327 62.8496V62.0996C27.2184 62.0996 26.8827 62.4354 26.8827 62.8496H27.6327ZM44.0384 62.8496H44.7884C44.7884 62.4354 44.4526 62.0996 44.0384 62.0996V62.8496ZM44.0384 94.0205V94.7705C44.4526 94.7705 44.7884 94.4347 44.7884 94.0205H44.0384ZM27.6327 94.0205H26.8827C26.8827 94.4347 27.2184 94.7705 27.6327 94.7705V94.0205ZM27.6327 62.8496V63.5996H44.0384V62.8496V62.0996H27.6327V62.8496ZM44.0384 62.8496H43.2884V94.0205H44.0384H44.7884V62.8496H44.0384ZM44.0384 94.0205V93.2705H27.6327V94.0205V94.7705H44.0384V94.0205ZM27.6327 94.0205H28.3827V62.8496H27.6327H26.8827V94.0205H27.6327Z" fill="#2D3D4D" style="fill:#2D3D4D;fill:color(display-p3 0.1765 0.2392 0.3020);fill-opacity:1;"></path> <path d="M24.3525 135.034V94.0199H47.3205V117" stroke="#2D3D4D" style="stroke:#2D3D4D;stroke:color(display-p3 0.1765 0.2392 0.3020);stroke-opacity:1;" stroke-width="1.5" stroke-linecap="round" stroke-linejoin="round"></path> <path d="M28.4547 79.2556H35.8373M43.2198 79.2556H35.8373M35.8373 79.2556V63.6702" stroke="#2D3D4D" style="stroke:#2D3D4D;stroke:color(display-p3 0.1765 0.2392 0.3020);stroke-opacity:1;" stroke-width="1.5" stroke-linecap="round" stroke-linejoin="round"></path> <path d="M47.3198 62.8496H24.3518" stroke="#2D3D4D" style="stroke:#2D3D4D;stroke:color(display-p3 0.1765 0.2392 0.3020);stroke-opacity:1;" stroke-width="1.5" stroke-linecap="round" stroke-linejoin="round"></path> <path d="M179 103H145.25V130M179 157H137H145.25V130M145.25 130H179" stroke="#2D3D4D" style="stroke:#2D3D4D;stroke:color(display-p3 0.1765 0.2392 0.3020);stroke-opacity:1;" stroke-width="1.5"></path> <path d="M16 179V142.077L129.827 50.6923V11H201" stroke="#2D3D4D" style="stroke:#2D3D4D;stroke:color(display-p3 0.1765 0.2392 0.3020);stroke-opacity:1;" stroke-width="1.5"></path> <path d="M16 -1V174.888" stroke="#2D3D4D" style="stroke:#2D3D4D;stroke:color(display-p3 0.1765 0.2392 0.3020);stroke-opacity:1;" stroke-width="2" stroke-linejoin="round" stroke-dasharray="2 2"></path> <path d="M54 -1V174.888" stroke="#2D3D4D" style="stroke:#2D3D4D;stroke:color(display-p3 0.1765 0.2392 0.3020);stroke-opacity:1;" stroke-width="2" stroke-linejoin="round" stroke-dasharray="2 2"></path> <path d="M130 -1V174.888" stroke="#2D3D4D" style="stroke:#2D3D4D;stroke:color(display-p3 0.1765 0.2392 0.3020);stroke-opacity:1;" stroke-width="2" stroke-linejoin="round" stroke-dasharray="2 2"></path> </g> <defs> <clipPath id="clip0_12517_13107"> <rect width="168" height="168" fill="white" style="fill:white;fill-opacity:1;"></rect> </clipPath> </defs> </svg>