<svg viewBox="0 0 168 168" fill="none" xmlns="http://www.w3.org/2000/svg"> <path fill-rule="evenodd" clip-rule="evenodd" d="M101.133 71.0515C89.7477 51.3633 85.1769 37.8804 84.3137 33.6C84.3145 41.0903 73.6823 60.6292 66.8479 71.0515C46.1473 102.619 82.3736 116.529 84.3145 117.599C104.078 109.494 115.365 96.197 101.133 71.0515Z" stroke="#2D3D4D" style="stroke:#2D3D4D;stroke:color(display-p3 0.1765 0.2392 0.3020);stroke-opacity:1;" stroke-width="1.5" stroke-linecap="round" stroke-linejoin="round"></path> <path d="M57.12 121.8L62.6729 126.133C62.8197 126.248 62.9985 126.314 63.1845 126.322C63.3705 126.33 63.5544 126.279 63.7104 126.178L69.9086 122.148C70.0645 122.046 70.2482 121.996 70.434 122.004C70.6198 122.012 70.7985 122.078 70.9451 122.192L75.9959 126.133C76.1426 126.248 76.3215 126.314 76.5075 126.322C76.6935 126.33 76.8773 126.279 77.0334 126.178L83.2315 122.148C83.3874 122.046 83.5711 121.996 83.7569 122.004C83.9427 122.012 84.1214 122.078 84.2681 122.192L89.2974 126.116C89.4487 126.235 89.6343 126.301 89.8264 126.305C90.0185 126.309 90.2069 126.252 90.3634 126.14L95.9405 122.185C96.0971 122.074 96.2855 122.016 96.4776 122.02C96.6697 122.025 96.8552 122.091 97.0066 122.209L102.014 126.116C102.166 126.234 102.352 126.301 102.544 126.305C102.736 126.309 102.925 126.252 103.081 126.14L109.2 121.8M57.12 129.675L62.6729 134.008C62.9741 134.242 63.3905 134.26 63.7104 134.052L69.9086 130.022C70.0644 129.921 70.2481 129.87 70.434 129.878C70.6199 129.886 70.7986 129.952 70.9451 130.067L75.9959 134.008C76.297 134.242 76.7134 134.26 77.0334 134.052L83.2315 130.022C83.3873 129.921 83.5711 129.87 83.757 129.878C83.9428 129.886 84.1216 129.952 84.2681 130.067L89.2974 133.991C89.4489 134.109 89.6344 134.175 89.8264 134.179C90.0184 134.184 90.2068 134.126 90.3634 134.015L95.9405 130.059C96.0973 129.948 96.2857 129.89 96.4777 129.895C96.6697 129.899 96.8552 129.966 97.0066 130.084L102.014 133.991C102.325 134.233 102.759 134.243 103.081 134.015L109.2 129.675M94.7636 96.0272C95.7466 103.023 88.595 113.248 84.554 117.6C81.1503 113.816 74.4714 104.202 74.9816 96.0272C75.4919 87.8515 82.4263 81.6444 85.8301 79.5632C87.7443 82.2119 93.4875 86.9436 94.7636 96.0272Z" stroke="#2D3D4D" style="stroke:#2D3D4D;stroke:color(display-p3 0.1765 0.2392 0.3020);stroke-opacity:1;" stroke-width="1.5" stroke-linecap="round" stroke-linejoin="round"></path> </svg>