<svg viewBox="0 0 168 168" fill="none" xmlns="http://www.w3.org/2000/svg"> <path d="M45.377 70.2211V76.4329L51.5888 73.9482V101.788H58.5346V64.4047L45.377 70.2211ZM67.1915 91.0023H87.0127V85.2423H67.1915V91.0023ZM113.755 89.1388C113.755 92.527 110.819 95.52 105.906 95.52C103.139 95.52 100.372 93.6564 98.9033 90.9458C98.3951 91.2282 93.5951 94.2776 93.0868 94.56C95.6845 99.247 100.767 102.353 105.906 102.353C114.828 102.353 120.644 96.9317 120.644 89.1388C120.644 81.12 115.11 76.8282 108.39 76.8282C106.019 76.8282 103.082 77.5058 101.557 78.8047L102.856 71.2376H118.329V64.8564H97.3221L94.2162 84.1129L98.1692 86.4847C100.88 83.5482 104.099 82.7576 106.64 82.7576C110.593 82.7576 113.755 84.847 113.755 89.1388Z" fill="#2D3D4D" style="fill:#2D3D4D;fill:color(display-p3 0.1765 0.2392 0.3020);fill-opacity:1;"></path> </svg>