<svg viewBox="0 0 168 168" fill="none" xmlns="http://www.w3.org/2000/svg"> <path d="M35.1128 103.398C35.4618 103.747 36.0276 103.747 36.3766 103.398L42.0635 97.7108C42.4125 97.3623 42.4125 96.7957 42.0635 96.4472C41.7145 96.0978 41.1488 96.0978 40.7998 96.4472L35.7447 101.502L30.6896 96.4472C30.3406 96.0978 29.7749 96.0978 29.4258 96.4472C29.0769 96.7957 29.0769 97.3623 29.4258 97.7108L35.1128 103.398ZM122.164 44.9426C121.815 44.5937 121.249 44.5937 120.9 44.9426L115.213 50.6296C114.864 50.9786 114.864 51.5443 115.213 51.8934C115.562 52.2423 116.128 52.2423 116.477 51.8934L121.532 46.8383L126.587 51.8934C126.936 52.2423 127.502 52.2423 127.851 51.8934C128.2 51.5443 128.2 50.9786 127.851 50.6296L122.164 44.9426ZM36.6383 102.766V74.6565H34.8511V102.766H36.6383ZM37.5319 73.7628H119.745V71.9756H37.5319V73.7628ZM122.426 71.082V45.5745H120.638V71.082H122.426ZM119.745 73.7628C121.225 73.7628 122.426 72.5625 122.426 71.082H120.638C120.638 71.5755 120.238 71.9756 119.745 71.9756V73.7628ZM36.6383 74.6565C36.6383 74.1629 37.0384 73.7628 37.5319 73.7628V71.9756C36.0513 71.9756 34.8511 73.1758 34.8511 74.6565H36.6383Z" fill="#2D3D4D" style="fill:#2D3D4D;fill:color(display-p3 0.1765 0.2392 0.3020);fill-opacity:1;"></path> <path d="M49.3904 56.137L53.5546 54.2962V66.1276H51.3563V57.3166L49.3904 58.103V56.137ZM66.1958 59.7293C65.2129 59.7293 64.498 60.4085 64.498 61.6774V66.1276H62.3175V61.5345C62.2997 60.3728 61.6384 59.7293 60.7805 59.7293C59.8869 59.7293 59.029 60.2476 59.029 61.6774V66.1276H56.8486V57.7813H59.029V59.0145C59.4937 57.9957 60.6375 57.6204 61.4239 57.6204C62.7465 57.6919 63.6222 58.1566 64.0869 59.1753C64.8733 57.7991 66.0529 57.6025 66.7141 57.6025C68.7337 57.6025 69.9312 58.9072 69.9312 61.3557V66.1276H67.7686V61.5881C67.7686 60.3906 67.0895 59.7293 66.1958 59.7293ZM72.6345 62.8928V60.9625H81.4456V62.8928H72.6345ZM91.4742 66.1276H84.0038V65.0017L88.7757 59.2825C89.1868 58.8 89.4904 58.2817 89.4904 57.7455C89.4904 56.9591 88.8115 56.3515 87.8106 56.3515C86.8634 56.3515 86.1306 57.0485 85.9877 58.0494L83.9502 57.674C84.2898 55.5472 85.8268 54.2247 87.9 54.2247C89.9551 54.2247 91.6708 55.6545 91.6708 57.7455C91.6708 58.8715 91.1525 59.9081 90.4197 60.7302L87.5247 64.0366H91.4742V66.1276ZM103.718 59.7293C102.735 59.7293 102.02 60.4085 102.02 61.6774V66.1276H99.8393V61.5345C99.8215 60.3728 99.1602 59.7293 98.3023 59.7293C97.4087 59.7293 96.5508 60.2476 96.5508 61.6774V66.1276H94.3704V57.7813H96.5508V59.0145C97.0155 57.9957 98.1593 57.6204 98.9457 57.6204C100.268 57.6919 101.144 58.1566 101.609 59.1753C102.395 57.7991 103.575 57.6025 104.236 57.6025C106.256 57.6025 107.453 58.9072 107.453 61.3557V66.1276H105.29V61.5881C105.29 60.3906 104.611 59.7293 103.718 59.7293Z" fill="#2D3D4D" style="fill:#2D3D4D;fill:color(display-p3 0.1765 0.2392 0.3020);fill-opacity:1;"></path> <path d="M148.34 18.7659H91.1489C90.6554 18.7659 90.2553 19.166 90.2553 19.6595V30.383C90.2553 30.8765 90.6554 31.2766 91.1489 31.2766H148.34C148.834 31.2766 149.234 30.8765 149.234 30.383V19.6595C149.234 19.166 148.834 18.7659 148.34 18.7659Z" stroke="#2D3D4D" style="stroke:#2D3D4D;stroke:color(display-p3 0.1765 0.2392 0.3020);stroke-opacity:1;" stroke-width="1.5" stroke-linecap="round" stroke-linejoin="round"></path> <path d="M52.7236 108.128H18.7661V151.021H52.7236V108.128Z" stroke="#2D3D4D" style="stroke:#2D3D4D;stroke:color(display-p3 0.1765 0.2392 0.3020);stroke-opacity:1;" stroke-width="1.5" stroke-linecap="round" stroke-linejoin="round"></path> <path d="M47.6596 148.425C48.9757 148.425 50.0426 147.358 50.0426 146.042C50.0426 144.726 48.9757 143.659 47.6596 143.659C46.3435 143.659 45.2766 144.726 45.2766 146.042C45.2766 147.358 46.3435 148.425 47.6596 148.425Z" stroke="#2D3D4D" style="stroke:#2D3D4D;stroke:color(display-p3 0.1765 0.2392 0.3020);stroke-opacity:1;" stroke-width="1.5" stroke-linecap="round" stroke-linejoin="round"></path> <path d="M22.3411 147.233C22.8346 147.233 23.2347 146.833 23.2347 146.34C23.2347 145.846 22.8346 145.446 22.3411 145.446C21.8475 145.446 21.4474 145.846 21.4474 146.34C21.4474 146.833 21.8475 147.233 22.3411 147.233Z" stroke="#2D3D4D" style="stroke:#2D3D4D;stroke:color(display-p3 0.1765 0.2392 0.3020);stroke-opacity:1;" stroke-width="1.5" stroke-linecap="round" stroke-linejoin="round"></path> <path d="M26.5105 147.233C27.004 147.233 27.4041 146.833 27.4041 146.34C27.4041 145.846 27.004 145.446 26.5105 145.446C26.017 145.446 25.6169 145.846 25.6169 146.34C25.6169 146.833 26.017 147.233 26.5105 147.233Z" stroke="#2D3D4D" style="stroke:#2D3D4D;stroke:color(display-p3 0.1765 0.2392 0.3020);stroke-opacity:1;" stroke-width="1.5" stroke-linecap="round" stroke-linejoin="round"></path> <path d="M19.6596 140.497H51.8298" stroke="#2D3D4D" style="stroke:#2D3D4D;stroke:color(display-p3 0.1765 0.2392 0.3020);stroke-opacity:1;" stroke-width="1.5" stroke-linejoin="round"></path> <path d="M37.0429 128.87C37.247 130.295 36.2884 130.73 36.2884 130.73C36.8068 127.866 34.1827 125.306 34.1827 125.306C34.3868 127.264 32.1702 129.473 32.1702 131.802C32.1702 133.643 33.5705 135.135 35.2982 135.135C37.0252 135.135 38.4255 133.711 38.4255 131.835C38.4255 129.557 37.0429 128.87 37.0429 128.87Z" stroke="#2D3D4D" style="stroke:#2D3D4D;stroke:color(display-p3 0.1765 0.2392 0.3020);stroke-opacity:1;" stroke-width="1.5"></path> </svg>