<svg viewBox="0 0 168 168" fill="none" xmlns="http://www.w3.org/2000/svg"> <g clip-path="url(#clip0_12517_13484)"> <path d="M103.835 83.955V73.6669M110.17 83.955V68.126M116.448 83.955V63.3789M121.989 83.955V68.126M129.085 83.955V73.6669" stroke="#2D3D4D" style="stroke:#2D3D4D;stroke:color(display-p3 0.1765 0.2392 0.3020);stroke-opacity:1;" stroke-width="3" stroke-linecap="round" stroke-linejoin="round"></path> <path d="M116.12 102.952C129.233 102.952 139.864 92.3214 139.864 79.2082C139.864 66.095 129.233 55.4647 116.12 55.4647C103.007 55.4647 92.3767 66.095 92.3767 79.2082C92.3767 92.3214 103.007 102.952 116.12 102.952Z" stroke="#2D3D4D" style="stroke:#2D3D4D;stroke:color(display-p3 0.1765 0.2392 0.3020);stroke-opacity:1;" stroke-width="1.5"></path> <path d="M139.749 79.4453H148.482" stroke="#2D3D4D" style="stroke:#2D3D4D;stroke:color(display-p3 0.1765 0.2392 0.3020);stroke-opacity:1;" stroke-width="1.5"></path> <path d="M82.7597 79.4453H91.4926" stroke="#2D3D4D" style="stroke:#2D3D4D;stroke:color(display-p3 0.1765 0.2392 0.3020);stroke-opacity:1;" stroke-width="1.5"></path> <path d="M116.112 102.952V111.693" stroke="#2D3D4D" style="stroke:#2D3D4D;stroke:color(display-p3 0.1765 0.2392 0.3020);stroke-opacity:1;" stroke-width="1.5"></path> <path d="M116.112 45.9619V54.6949" stroke="#2D3D4D" style="stroke:#2D3D4D;stroke:color(display-p3 0.1765 0.2392 0.3020);stroke-opacity:1;" stroke-width="1.5"></path> <path d="M148.933 81.8673C150.447 63.5687 136.84 47.5074 118.541 45.9933C100.243 44.4792 84.1815 58.0858 82.6674 76.3844C81.1534 94.683 94.7599 110.744 113.059 112.258C131.357 113.772 147.418 100.166 148.933 81.8673Z" stroke="#2D3D4D" style="stroke:#2D3D4D;stroke:color(display-p3 0.1765 0.2392 0.3020);stroke-opacity:1;" stroke-width="1.5"></path> <path d="M0 144.137H41.9091C43.0137 144.137 43.9091 145.032 43.9091 146.137V172.773" stroke="#2D3D4D" style="stroke:#2D3D4D;stroke:color(display-p3 0.1765 0.2392 0.3020);stroke-opacity:1;" stroke-width="1.5"></path> <path d="M42.9545 134.591H0" stroke="#2D3D4D" style="stroke:#2D3D4D;stroke:color(display-p3 0.1765 0.2392 0.3020);stroke-opacity:1;" stroke-width="1.5"></path> <path d="M0 55.3634H51.4545C52.5591 55.3634 53.4545 56.2588 53.4545 57.3634V172.295" stroke="#2D3D4D" style="stroke:#2D3D4D;stroke:color(display-p3 0.1765 0.2392 0.3020);stroke-opacity:1;" stroke-width="1.5"></path> <path d="M0 64.9091H41.9091C43.0137 64.9091 43.9091 65.8045 43.9091 66.9091V132.591C43.9091 133.695 43.0137 134.591 41.9091 134.591H0" stroke="#2D3D4D" style="stroke:#2D3D4D;stroke:color(display-p3 0.1765 0.2392 0.3020);stroke-opacity:1;" stroke-width="1.5"></path> </g> <defs> <clipPath id="clip0_12517_13484"> <rect width="168" height="168" fill="white" style="fill:white;fill-opacity:1;"></rect> </clipPath> </defs> </svg>