<svg viewBox="0 0 168 168" fill="none" xmlns="http://www.w3.org/2000/svg"> <path d="M48.9614 90.0989C48.9049 93.2613 46.4202 95.6895 43.3144 95.633C40.2649 95.633 37.7802 93.0919 37.7802 89.9295C37.8367 86.8236 40.4344 84.3389 43.5402 84.3954C46.6461 84.4519 49.0179 86.993 48.9614 90.0989ZM44.6696 77.9577C40.7732 77.9577 37.8932 80.273 37.2155 82.1366C36.8767 76.2636 39.0791 70.673 44.3873 70.673C46.3073 70.673 48.1708 71.633 49.3567 74.0613L55.7379 71.3507C53.1402 65.7036 48.9049 64.3483 44.6132 64.1789C31.2861 63.7836 29.3661 78.0707 30.2696 89.5342C30.8908 97.3272 36.1991 102.24 42.9755 102.353C50.5991 102.41 55.9638 97.4401 56.0768 90.4942C56.1332 82.6448 50.4861 77.9577 44.6696 77.9577ZM62.6972 91.0025H82.5184V85.2425H62.6972V91.0025ZM87.5373 70.2213V76.433L93.749 73.9483V101.788H100.695V64.4048L87.5373 70.2213ZM109.182 83.3225C109.182 93.826 112.175 102.353 122.905 102.353C133.634 102.353 136.458 93.826 136.458 83.3225C136.458 72.706 133.634 64.1789 122.905 64.1789C112.175 64.1789 109.182 72.706 109.182 83.3225ZM116.128 83.3225C116.128 76.546 117.597 70.9554 122.905 70.9554C128.1 70.9554 129.568 76.546 129.568 83.3225C129.568 90.0425 128.1 95.5766 122.905 95.5766C117.597 95.5766 116.128 90.0425 116.128 83.3225Z" fill="#2D3D4D" style="fill:#2D3D4D;fill:color(display-p3 0.1765 0.2392 0.3020);fill-opacity:1;"></path> </svg>