<svg viewBox="0 0 168 168" fill="none" xmlns="http://www.w3.org/2000/svg"> <path d="M44.4706 70.3793V76.6955L50.7868 74.169V102.477H57.8495V64.465L44.4706 70.3793ZM66.48 83.7008C66.48 94.3809 69.5233 103.051 80.4331 103.051C91.3429 103.051 94.2139 94.3809 94.2139 83.7008C94.2139 72.9058 91.3429 64.2354 80.4331 64.2354C69.5233 64.2354 66.48 72.9058 66.48 83.7008ZM73.5427 83.7008C73.5427 76.8104 75.0356 71.1258 80.4331 71.1258C85.7157 71.1258 87.2087 76.8104 87.2087 83.7008C87.2087 90.5338 85.7157 96.1609 80.4331 96.1609C75.0356 96.1609 73.5427 90.5338 73.5427 83.7008ZM115.089 90.2467H124.104V84.6769H115.089V75.7194H109.519V84.6769H100.504V90.2467H109.519V99.319H115.089V90.2467Z" fill="#2D3D4D" style="fill:#2D3D4D;fill:color(display-p3 0.1765 0.2392 0.3020);fill-opacity:1;"></path> </svg>