<svg viewBox="0 0 168 168" fill="none" xmlns="http://www.w3.org/2000/svg"> <path d="M35.1128 102.504C35.4618 102.854 36.0276 102.854 36.3766 102.504L42.0635 96.8172C42.4125 96.4687 42.4125 95.9022 42.0635 95.5537C41.7145 95.2043 41.1487 95.2043 40.7998 95.5537L35.7447 100.609L30.6896 95.5537C30.3406 95.2043 29.7749 95.2043 29.4258 95.5537C29.0769 95.9022 29.0769 96.4687 29.4258 96.8172L35.1128 102.504ZM122.164 44.0491C121.815 43.7001 121.249 43.7001 120.9 44.0491L115.213 49.736C114.864 50.085 114.864 50.6508 115.213 50.9998C115.562 51.3488 116.128 51.3488 116.477 50.9998L121.532 45.9447L126.587 50.9998C126.936 51.3488 127.502 51.3488 127.851 50.9998C128.2 50.6508 128.2 50.085 127.851 49.736L122.164 44.0491ZM36.6383 101.872V73.7629H34.8511V101.872H36.6383ZM37.5319 72.8693H119.745V71.0821H37.5319V72.8693ZM122.426 70.1884V44.6809H120.638V70.1884H122.426ZM119.745 72.8693C121.225 72.8693 122.426 71.669 122.426 70.1884H120.638C120.638 70.682 120.238 71.0821 119.745 71.0821V72.8693ZM36.6383 73.7629C36.6383 73.2694 37.0384 72.8693 37.5319 72.8693V71.0821C36.0513 71.0821 34.8511 72.2823 34.8511 73.7629H36.6383Z" fill="#2D3D4D" style="fill:#2D3D4D;fill:color(display-p3 0.1765 0.2392 0.3020);fill-opacity:1;"></path> <path d="M65.6371 60.9267H64.386V58.9786H65.6371C66.7451 58.9965 66.9596 57.9956 66.9596 57.6918C66.9596 57.2629 66.763 56.5301 65.923 56.3692C65.2439 56.2799 64.5826 56.4943 64.1179 57.0841L62.4022 55.9582C63.0634 54.8501 64.4217 54.1352 65.9409 54.2246C67.9426 54.3318 69.3188 55.7616 69.3188 57.4952C69.3188 58.4603 68.7111 59.3003 67.8711 59.7829C69.1043 60.2475 69.9443 61.7131 69.8192 62.9641C69.6047 65.0909 67.5851 66.4492 65.3154 66.2884C63.7069 66.1812 62.3128 65.1803 61.6873 63.822C61.8481 63.7326 63.4388 62.9463 63.5996 62.8569C63.9392 63.5539 64.6898 64.1616 65.4941 64.1616C66.6022 64.1616 67.46 63.4467 67.46 62.428C67.46 62.1241 67.2277 60.8731 65.6371 60.9267ZM81.8097 59.7292C80.8268 59.7292 80.1119 60.4084 80.1119 61.6773V66.1275H77.9314V61.5343C77.9136 60.3726 77.2523 59.7292 76.3944 59.7292C75.5008 59.7292 74.6429 60.2475 74.6429 61.6773V66.1275H72.4625V57.7812H74.6429V59.0143C75.1076 57.9956 76.2514 57.6203 77.0378 57.6203C78.3604 57.6918 79.2361 58.1565 79.7008 59.1752C80.4872 57.799 81.6668 57.6024 82.328 57.6024C84.3476 57.6024 85.5451 58.9071 85.5451 61.3556V66.1275H83.3825V61.588C83.3825 60.3905 82.7034 59.7292 81.8097 59.7292ZM92.5555 62.3207V65.1446H90.8219V62.3207H88.016V60.5871H90.8219V57.799H92.5555V60.5871H95.3614V62.3207H92.5555Z" fill="#2D3D4D" style="fill:#2D3D4D;fill:color(display-p3 0.1765 0.2392 0.3020);fill-opacity:1;"></path> <path d="M148.34 18.7659H91.1489C90.6554 18.7659 90.2553 19.166 90.2553 19.6595V30.3829C90.2553 30.8764 90.6554 31.2765 91.1489 31.2765H148.34C148.834 31.2765 149.234 30.8764 149.234 30.3829V19.6595C149.234 19.166 148.834 18.7659 148.34 18.7659Z" stroke="#2D3D4D" style="stroke:#2D3D4D;stroke:color(display-p3 0.1765 0.2392 0.3020);stroke-opacity:1;" stroke-width="1.5" stroke-linecap="round" stroke-linejoin="round"></path> <path d="M52.7236 108.128H18.7661V151.021H52.7236V108.128Z" stroke="#2D3D4D" style="stroke:#2D3D4D;stroke:color(display-p3 0.1765 0.2392 0.3020);stroke-opacity:1;" stroke-width="1.5" stroke-linecap="round" stroke-linejoin="round"></path> <path d="M47.6596 148.425C48.9757 148.425 50.0426 147.358 50.0426 146.042C50.0426 144.726 48.9757 143.659 47.6596 143.659C46.3435 143.659 45.2766 144.726 45.2766 146.042C45.2766 147.358 46.3435 148.425 47.6596 148.425Z" stroke="#2D3D4D" style="stroke:#2D3D4D;stroke:color(display-p3 0.1765 0.2392 0.3020);stroke-opacity:1;" stroke-width="1.5" stroke-linecap="round" stroke-linejoin="round"></path> <path d="M22.3411 147.233C22.8346 147.233 23.2347 146.833 23.2347 146.34C23.2347 145.846 22.8346 145.446 22.3411 145.446C21.8475 145.446 21.4474 145.846 21.4474 146.34C21.4474 146.833 21.8475 147.233 22.3411 147.233Z" stroke="#2D3D4D" style="stroke:#2D3D4D;stroke:color(display-p3 0.1765 0.2392 0.3020);stroke-opacity:1;" stroke-width="1.5" stroke-linecap="round" stroke-linejoin="round"></path> <path d="M26.5105 147.233C27.004 147.233 27.4041 146.833 27.4041 146.34C27.4041 145.846 27.004 145.446 26.5105 145.446C26.017 145.446 25.6169 145.846 25.6169 146.34C25.6169 146.833 26.017 147.233 26.5105 147.233Z" stroke="#2D3D4D" style="stroke:#2D3D4D;stroke:color(display-p3 0.1765 0.2392 0.3020);stroke-opacity:1;" stroke-width="1.5" stroke-linecap="round" stroke-linejoin="round"></path> <path d="M19.6596 140.497H51.8298" stroke="#2D3D4D" style="stroke:#2D3D4D;stroke:color(display-p3 0.1765 0.2392 0.3020);stroke-opacity:1;" stroke-width="1.5" stroke-linejoin="round"></path> <path d="M37.0429 128.87C37.247 130.295 36.2884 130.73 36.2884 130.73C36.8067 127.866 34.1827 125.306 34.1827 125.306C34.3867 127.264 32.1702 129.473 32.1702 131.802C32.1702 133.643 33.5705 135.135 35.2982 135.135C37.0252 135.135 38.4255 133.711 38.4255 131.835C38.4255 129.557 37.0429 128.87 37.0429 128.87Z" stroke="#2D3D4D" style="stroke:#2D3D4D;stroke:color(display-p3 0.1765 0.2392 0.3020);stroke-opacity:1;" stroke-width="1.5"></path> </svg>