<svg viewBox="0 0 168 168" fill="none" xmlns="http://www.w3.org/2000/svg"> <path d="M73.1476 111.529H71.6653V134.685H73.1476V111.529Z" fill="#2D3D4D" style="fill:#2D3D4D;fill:color(display-p3 0.1765 0.2392 0.3020);fill-opacity:1;"></path> <path d="M98.1994 111.529H96.717V134.685H98.1994V111.529Z" fill="#2D3D4D" style="fill:#2D3D4D;fill:color(display-p3 0.1765 0.2392 0.3020);fill-opacity:1;"></path> <path fill-rule="evenodd" clip-rule="evenodd" d="M113.034 51.7442L113.981 50.864L114.151 48.8002C114.607 43.2763 110.247 38.5413 104.705 38.5413H63.8327C58.283 38.5413 53.9204 43.2877 54.3872 48.8176L54.56 50.864L55.4832 51.7442L54.7085 52.6244L59.0529 104.088C59.4081 108.296 62.9267 111.529 67.149 111.529H101.491C105.718 111.529 109.24 108.287 109.587 104.073L113.835 52.6244L113.034 51.7442ZM112.717 53.0049L111.512 51.6807L112.936 50.3567L113.071 48.7111C113.475 43.8184 109.613 39.6246 104.705 39.6246H63.8327C58.9172 39.6246 55.0532 43.8285 55.4667 48.7265L55.6048 50.3634L56.9842 51.6785L55.8269 52.9934L60.1324 103.997C60.4402 107.644 63.4897 110.446 67.149 110.446H101.491C105.154 110.446 108.207 107.636 108.508 103.984L112.717 53.0049Z" fill="#2D3D4D" style="fill:#2D3D4D;fill:color(display-p3 0.1765 0.2392 0.3020);fill-opacity:1;"></path> <path d="M55.8871 59.8196C58.771 60.0874 61.0989 62.4371 61.2552 65.4153L62.3334 85.9709C62.4694 88.5682 60.9121 90.8614 58.6273 91.7825L55.8871 59.8196Z" stroke="#2D3D4D" style="stroke:#2D3D4D;stroke:color(display-p3 0.1765 0.2392 0.3020);stroke-opacity:1;"></path> <path d="M109.954 91.7825C107.67 90.8611 106.114 88.5678 106.25 85.9709L107.328 65.4153C107.484 62.4374 109.811 60.0877 112.695 59.8196L109.954 91.7825Z" stroke="#2D3D4D" style="stroke:#2D3D4D;stroke:color(display-p3 0.1765 0.2392 0.3020);stroke-opacity:1;"></path> <path d="M84.326 59.4888C87.6023 59.4888 90.2586 62.1451 90.2586 65.4214V86.0044C90.2585 89.2805 87.6022 91.936 84.326 91.936C81.0502 91.9358 78.3946 89.2803 78.3944 86.0044V65.4214C78.3944 62.1453 81.0501 59.489 84.326 59.4888Z" stroke="#2D3D4D" style="stroke:#2D3D4D;stroke:color(display-p3 0.1765 0.2392 0.3020);stroke-opacity:1;"></path> <path d="M112.659 51.3882H55.3412V52.8705H112.659V51.3882Z" fill="#2D3D4D" style="fill:#2D3D4D;fill:color(display-p3 0.1765 0.2392 0.3020);fill-opacity:1;"></path> </svg>