<svg viewBox="0 0 168 168" fill="none" xmlns="http://www.w3.org/2000/svg"> <path d="M110.68 84.6211H56.6377V86.1034H110.68V84.6211Z" fill="#2D3D4D" style="fill:#2D3D4D;fill:color(display-p3 0.1765 0.2392 0.3020);fill-opacity:1;"></path> <path d="M110.68 105.092H56.6377V106.574H110.68V105.092Z" fill="#2D3D4D" style="fill:#2D3D4D;fill:color(display-p3 0.1765 0.2392 0.3020);fill-opacity:1;"></path> <path fill-rule="evenodd" clip-rule="evenodd" d="M61.2245 63.0162L56.0375 76.4138V82.984L57.3534 84.667L56.0375 86.3502V104.076L57.5046 105.541L56.0375 107.005V109.553C56.0375 118.275 63.1206 125.346 71.8581 125.346H95.4593C104.197 125.346 111.28 118.275 111.28 109.553V107.005L109.813 105.541L111.28 104.076V86.3502L109.965 84.667L111.28 82.984V76.4138L106.093 63.0162V31.1086C106.093 25.9612 101.913 21.7885 96.7559 21.7885H70.5613C65.4047 21.7885 61.2245 25.9612 61.2245 31.1086V63.0162ZM112.318 76.2207V83.3402L111.28 84.667L112.318 85.9939V104.505L111.28 105.541L112.318 106.576V109.553C112.318 118.847 104.77 126.381 95.4593 126.381H71.8581C62.5476 126.381 55 118.847 55 109.553V106.576L56.0375 105.541L55 104.505V85.9939L56.0375 84.667L55 83.3402V76.2207L60.1871 62.823V31.1086C60.1871 25.3893 64.8319 20.7529 70.5613 20.7529H96.7559C102.486 20.7529 107.13 25.3893 107.13 31.1086V62.823L112.318 76.2207Z" fill="#2D3D4D" style="fill:#2D3D4D;fill:color(display-p3 0.1765 0.2392 0.3020);fill-opacity:1;"></path> <path d="M72.2941 125.506H70.8118V137.365H72.2941V125.506Z" fill="#2D3D4D" style="fill:#2D3D4D;fill:color(display-p3 0.1765 0.2392 0.3020);fill-opacity:1;"></path> <path d="M97.9882 125.506H96.5059V137.365H97.9882V125.506Z" fill="#2D3D4D" style="fill:#2D3D4D;fill:color(display-p3 0.1765 0.2392 0.3020);fill-opacity:1;"></path> <path d="M98.3537 99.3154H97.5791V101.639H98.3537V99.3154Z" fill="#2D3D4D" style="fill:#2D3D4D;fill:color(display-p3 0.1765 0.2392 0.3020);fill-opacity:1;"></path> <path d="M78.7018 99.3154H77.9272V101.639H78.7018V99.3154Z" fill="#2D3D4D" style="fill:#2D3D4D;fill:color(display-p3 0.1765 0.2392 0.3020);fill-opacity:1;"></path> <path d="M63.1439 99.3154H62.3694V101.639H63.1439V99.3154Z" fill="#2D3D4D" style="fill:#2D3D4D;fill:color(display-p3 0.1765 0.2392 0.3020);fill-opacity:1;"></path> <path d="M61.4717 90.3525H64.515V91.4053H62.1863L61.8836 93.2424L61.9005 93.2631C62.0294 93.0842 62.1919 92.95 62.3881 92.8606C62.5898 92.7642 62.7888 92.7161 62.985 92.7161C63.2764 92.7161 63.537 92.7781 63.7668 92.9019C63.9966 93.0189 64.19 93.1874 64.3469 93.4077C64.5038 93.6209 64.6215 93.8755 64.7 94.1714C64.784 94.4673 64.8261 94.7872 64.8261 95.1313C64.8261 95.4203 64.7869 95.7195 64.7084 96.0293C64.6355 96.332 64.515 96.6106 64.3469 96.8652C64.1843 97.113 63.9741 97.3194 63.7164 97.4845C63.4586 97.6428 63.1503 97.7219 62.7916 97.7219C62.5058 97.7219 62.2396 97.6738 61.9929 97.5774C61.752 97.488 61.539 97.3503 61.354 97.1645C61.1691 96.9788 61.0206 96.7518 60.9084 96.4834C60.802 96.2081 60.7431 95.8881 60.7319 95.5235H61.6903C61.7183 95.9157 61.8276 96.2184 62.0182 96.4318C62.2088 96.6382 62.4609 96.7414 62.7748 96.7414C62.9765 96.7414 63.1475 96.7001 63.2876 96.6176C63.4277 96.5349 63.5398 96.4215 63.6239 96.2769C63.7135 96.1324 63.7752 95.9638 63.8088 95.7712C63.848 95.5785 63.8677 95.3721 63.8677 95.1519C63.8677 94.9524 63.8453 94.7631 63.8004 94.5843C63.7555 94.3985 63.6883 94.2368 63.5987 94.0991C63.509 93.9616 63.3913 93.8515 63.2456 93.7689C63.1055 93.6863 62.9401 93.645 62.7496 93.645C62.5478 93.645 62.3573 93.6932 62.1779 93.7895C62.0042 93.879 61.8781 94.051 61.7996 94.3056H60.8412L61.4717 90.3525Z" fill="#2D3D4D" style="fill:#2D3D4D;fill:color(display-p3 0.1765 0.2392 0.3020);fill-opacity:1;"></path> <path d="M76.3389 95.0268H78.4303V91.7843H78.4106L76.3389 95.0268ZM80.3836 95.9743H79.4958V97.7219H78.4303V95.9743H75.4707V94.7847L78.4303 90.3525H79.4958V95.0268H80.3836V95.9743Z" fill="#2D3D4D" style="fill:#2D3D4D;fill:color(display-p3 0.1765 0.2392 0.3020);fill-opacity:1;"></path> <path d="M97.082 93.4298C97.2668 93.4366 97.4526 93.4231 97.6384 93.3894C97.8242 93.3556 97.9902 93.2983 98.1354 93.2172C98.2817 93.1296 98.3973 93.0115 98.4843 92.863C98.5762 92.7145 98.6226 92.5323 98.6226 92.3164C98.6226 92.0127 98.5199 91.7697 98.3143 91.5875C98.1157 91.4053 97.8577 91.3142 97.5385 91.3142C97.3399 91.3142 97.168 91.3547 97.0217 91.4356C96.8764 91.5167 96.7529 91.628 96.6541 91.7697C96.5612 91.9047 96.491 92.0599 96.4446 92.2353C96.3991 92.4041 96.3784 92.5795 96.3853 92.7618H95.2518C95.2646 92.4176 95.3279 92.1004 95.4405 91.8102C95.5532 91.5132 95.7054 91.2568 95.8981 91.0408C96.0967 90.8249 96.3359 90.6562 96.6146 90.5348C96.8922 90.4132 97.2075 90.3525 97.5593 90.3525C97.8311 90.3525 98.0959 90.393 98.3548 90.474C98.6197 90.5549 98.8549 90.673 99.0604 90.8283C99.2729 90.9835 99.4419 91.1826 99.5674 91.4256C99.6939 91.6618 99.7571 91.935 99.7571 92.2455C99.7571 92.6032 99.6771 92.9169 99.518 93.1869C99.3589 93.4501 99.1108 93.6425 98.7719 93.7639V93.7842C99.1701 93.8651 99.4785 94.0676 99.6969 94.3916C99.9222 94.7087 100.035 95.0968 100.035 95.5556C100.035 95.8931 99.9686 96.1968 99.8362 96.4667C99.7038 96.7299 99.5249 96.9559 99.2996 97.1449C99.0743 97.3271 98.8124 97.4688 98.5139 97.5701C98.2155 97.6713 97.9002 97.7219 97.5692 97.7219C97.164 97.7219 96.8092 97.6646 96.5049 97.5499C96.2064 97.4284 95.9544 97.2596 95.7489 97.0437C95.5502 96.8278 95.397 96.5679 95.2913 96.2643C95.1856 95.9606 95.1292 95.6231 95.1223 95.2519H96.2558C96.243 95.6839 96.3457 96.0449 96.5641 96.3351C96.7895 96.6185 97.1245 96.7603 97.5692 96.7603C97.9467 96.7603 98.2619 96.6522 98.5139 96.4363C98.7719 96.2137 98.9013 95.8998 98.9013 95.4949C98.9013 95.2182 98.849 94.9989 98.7422 94.837C98.6365 94.675 98.4971 94.5535 98.3242 94.4725C98.1522 94.3847 97.9566 94.3308 97.7382 94.3105C97.5257 94.2903 97.3073 94.2835 97.082 94.2903V93.4298Z" fill="#2D3D4D" style="fill:#2D3D4D;fill:color(display-p3 0.1765 0.2392 0.3020);fill-opacity:1;"></path> <path d="M92.6657 94.0373L87.1389 95.101V92.9736L92.6657 94.0373Z" fill="#2D3D4D" style="fill:#2D3D4D;fill:color(display-p3 0.1765 0.2392 0.3020);fill-opacity:1;"></path> <path d="M102.492 94.0373L108.019 92.9736V95.101L102.492 94.0373Z" fill="#2D3D4D" style="fill:#2D3D4D;fill:color(display-p3 0.1765 0.2392 0.3020);fill-opacity:1;"></path> <path fill-rule="evenodd" clip-rule="evenodd" d="M61.9602 108.367L59.9131 111.642H64.0073L61.9602 108.367ZM61.9602 109.076L60.577 111.288H63.3433L61.9602 109.076Z" fill="#2D3D4D" style="fill:#2D3D4D;fill:color(display-p3 0.1765 0.2392 0.3020);fill-opacity:1;"></path> <path d="M83.6589 21.7412V54.353" stroke="#2D3D4D" style="stroke:#2D3D4D;stroke:color(display-p3 0.1765 0.2392 0.3020);stroke-opacity:1;" stroke-width="1.5" stroke-linecap="round"></path> <path d="M88.6001 21.7412V54.353" stroke="#2D3D4D" style="stroke:#2D3D4D;stroke:color(display-p3 0.1765 0.2392 0.3020);stroke-opacity:1;" stroke-width="1.5" stroke-linecap="round"></path> <path d="M93.5413 21.7412V54.353" stroke="#2D3D4D" style="stroke:#2D3D4D;stroke:color(display-p3 0.1765 0.2392 0.3020);stroke-opacity:1;" stroke-width="1.5" stroke-linecap="round"></path> </svg>