<svg viewBox="0 0 168 168" fill="none" xmlns="http://www.w3.org/2000/svg"> <path d="M35.1128 102.504C35.4618 102.854 36.0276 102.854 36.3766 102.504L42.0635 96.8172C42.4125 96.4687 42.4125 95.9022 42.0635 95.5537C41.7145 95.2043 41.1488 95.2043 40.7998 95.5537L35.7447 100.609L30.6896 95.5537C30.3406 95.2043 29.7749 95.2043 29.4258 95.5537C29.0769 95.9022 29.0769 96.4687 29.4258 96.8172L35.1128 102.504ZM122.164 44.0491C121.815 43.7001 121.249 43.7001 120.9 44.0491L115.213 49.736C114.864 50.085 114.864 50.6508 115.213 50.9998C115.562 51.3488 116.128 51.3488 116.477 50.9998L121.532 45.9447L126.587 50.9998C126.936 51.3488 127.502 51.3488 127.851 50.9998C128.2 50.6508 128.2 50.085 127.851 49.736L122.164 44.0491ZM36.6383 101.872V73.7629H34.8511V101.872H36.6383ZM37.5319 72.8693H119.745V71.0821H37.5319V72.8693ZM122.426 70.1884V44.6809H120.638V70.1884H122.426ZM119.745 72.8693C121.225 72.8693 122.426 71.669 122.426 70.1884H120.638C120.638 70.682 120.238 71.0821 119.745 71.0821V72.8693ZM36.6383 73.7629C36.6383 73.2694 37.0384 72.8693 37.5319 72.8693V71.0821C36.0513 71.0821 34.8511 72.2823 34.8511 73.7629H36.6383Z" fill="#2D3D4D" style="fill:#2D3D4D;fill:color(display-p3 0.1765 0.2392 0.3020);fill-opacity:1;"></path> <path d="M55.5064 66.1275H48.0358V65.0016L52.8077 59.2824C53.2187 58.7999 53.5226 58.2816 53.5226 57.7454C53.5226 56.959 52.8434 56.3514 51.8426 56.3514C50.8953 56.3514 50.1626 57.0484 50.0196 58.0492L47.9821 57.6739C48.3217 55.5471 49.8587 54.2246 51.9319 54.2246C53.9873 54.2246 55.703 55.6543 55.703 57.7454C55.703 58.8714 55.1847 59.908 54.4519 60.7301L51.5566 64.0365H55.5064V66.1275ZM67.7492 59.7292C66.7662 59.7292 66.0513 60.4084 66.0513 61.6773V66.1275H63.8709V61.5343C63.8531 60.3726 63.1918 59.7292 62.3339 59.7292C61.4403 59.7292 60.5824 60.2475 60.5824 61.6773V66.1275H58.402V57.7812H60.5824V59.0143C61.0471 57.9956 62.1909 57.6203 62.9773 57.6203C64.2999 57.6918 65.1756 58.1565 65.6403 59.1752C66.4267 57.799 67.6062 57.6024 68.2675 57.6024C70.2871 57.6024 71.4845 58.9071 71.4845 61.3556V66.1275H69.322V61.588C69.322 60.3905 68.6428 59.7292 67.7492 59.7292ZM74.1879 62.8926V60.9624H82.999V62.8926H74.1879ZM89.1853 60.9267H87.9342V58.9786H89.1853C90.2937 58.9965 90.5082 57.9956 90.5082 57.6918C90.5082 57.2629 90.3116 56.5301 89.4716 56.3692C88.7921 56.2799 88.1308 56.4943 87.6662 57.0841L85.9504 55.9582C86.6117 54.8501 87.97 54.1352 89.4895 54.2246C91.4912 54.3318 92.8674 55.7616 92.8674 57.4952C92.8674 58.4603 92.2597 59.3003 91.4197 59.7829C92.6529 60.2475 93.4929 61.7131 93.3678 62.9641C93.1533 65.0909 91.1337 66.4492 88.8636 66.2884C87.2551 66.1812 85.861 65.1803 85.2355 63.822C85.3964 63.7326 86.987 62.9463 87.1479 62.8569C87.4874 63.5539 88.2381 64.1616 89.0423 64.1616C90.1508 64.1616 91.0086 63.4467 91.0086 62.428C91.0086 62.1241 90.7763 60.8731 89.1853 60.9267ZM105.358 59.7292C104.375 59.7292 103.66 60.4084 103.66 61.6773V66.1275H101.48V61.5343C101.462 60.3726 100.801 59.7292 99.943 59.7292C99.0494 59.7292 98.1915 60.2475 98.1915 61.6773V66.1275H96.0111V57.7812H98.1915V59.0143C98.6562 57.9956 99.8 57.6203 100.586 57.6203C101.909 57.6918 102.785 58.1565 103.249 59.1752C104.036 57.799 105.215 57.6024 105.877 57.6024C107.896 57.6024 109.094 58.9071 109.094 61.3556V66.1275H106.931V61.588C106.931 60.3905 106.252 59.7292 105.358 59.7292Z" fill="#2D3D4D" style="fill:#2D3D4D;fill:color(display-p3 0.1765 0.2392 0.3020);fill-opacity:1;"></path> <path d="M148.34 18.7659H91.1489C90.6554 18.7659 90.2553 19.166 90.2553 19.6595V30.3829C90.2553 30.8764 90.6554 31.2765 91.1489 31.2765H148.34C148.834 31.2765 149.234 30.8764 149.234 30.3829V19.6595C149.234 19.166 148.834 18.7659 148.34 18.7659Z" stroke="#2D3D4D" style="stroke:#2D3D4D;stroke:color(display-p3 0.1765 0.2392 0.3020);stroke-opacity:1;" stroke-width="1.5" stroke-linecap="round" stroke-linejoin="round"></path> <path d="M52.7236 108.128H18.7661V151.021H52.7236V108.128Z" stroke="#2D3D4D" style="stroke:#2D3D4D;stroke:color(display-p3 0.1765 0.2392 0.3020);stroke-opacity:1;" stroke-width="1.5" stroke-linecap="round" stroke-linejoin="round"></path> <path d="M47.6596 148.425C48.9757 148.425 50.0426 147.358 50.0426 146.042C50.0426 144.726 48.9757 143.659 47.6596 143.659C46.3435 143.659 45.2766 144.726 45.2766 146.042C45.2766 147.358 46.3435 148.425 47.6596 148.425Z" stroke="#2D3D4D" style="stroke:#2D3D4D;stroke:color(display-p3 0.1765 0.2392 0.3020);stroke-opacity:1;" stroke-width="1.5" stroke-linecap="round" stroke-linejoin="round"></path> <path d="M22.3411 147.233C22.8346 147.233 23.2347 146.833 23.2347 146.34C23.2347 145.846 22.8346 145.446 22.3411 145.446C21.8475 145.446 21.4474 145.846 21.4474 146.34C21.4474 146.833 21.8475 147.233 22.3411 147.233Z" stroke="#2D3D4D" style="stroke:#2D3D4D;stroke:color(display-p3 0.1765 0.2392 0.3020);stroke-opacity:1;" stroke-width="1.5" stroke-linecap="round" stroke-linejoin="round"></path> <path d="M26.5105 147.233C27.004 147.233 27.4041 146.833 27.4041 146.34C27.4041 145.846 27.004 145.446 26.5105 145.446C26.017 145.446 25.6169 145.846 25.6169 146.34C25.6169 146.833 26.017 147.233 26.5105 147.233Z" stroke="#2D3D4D" style="stroke:#2D3D4D;stroke:color(display-p3 0.1765 0.2392 0.3020);stroke-opacity:1;" stroke-width="1.5" stroke-linecap="round" stroke-linejoin="round"></path> <path d="M19.6596 140.497H51.8298" stroke="#2D3D4D" style="stroke:#2D3D4D;stroke:color(display-p3 0.1765 0.2392 0.3020);stroke-opacity:1;" stroke-width="1.5" stroke-linejoin="round"></path> <path d="M37.0429 128.87C37.247 130.295 36.2884 130.73 36.2884 130.73C36.8068 127.866 34.1827 125.306 34.1827 125.306C34.3868 127.264 32.1702 129.473 32.1702 131.802C32.1702 133.643 33.5705 135.135 35.2982 135.135C37.0252 135.135 38.4255 133.711 38.4255 131.835C38.4255 129.557 37.0429 128.87 37.0429 128.87Z" stroke="#2D3D4D" style="stroke:#2D3D4D;stroke:color(display-p3 0.1765 0.2392 0.3020);stroke-opacity:1;" stroke-width="1.5"></path> </svg>