<svg viewBox="0 0 168 168" fill="none" xmlns="http://www.w3.org/2000/svg"> <path fill-rule="evenodd" clip-rule="evenodd" d="M112.596 19.2127H55.4042C55.1575 19.2127 54.9574 19.4128 54.9574 19.6595V30.383C54.9574 30.6297 55.1575 30.8298 55.4042 30.8298H112.596C112.842 30.8298 113.043 30.6297 113.043 30.383V19.6595C113.043 19.4128 112.842 19.2127 112.596 19.2127ZM55.4042 17.8723C54.4171 17.8723 53.617 18.6725 53.617 19.6595V30.383C53.617 31.37 54.4171 32.1702 55.4042 32.1702H112.596C113.583 32.1702 114.383 31.37 114.383 30.383V19.6595C114.383 18.6725 113.583 17.8723 112.596 17.8723H55.4042Z" fill="#2D3D4D" style="fill:#2D3D4D;fill:color(display-p3 0.1765 0.2392 0.3020);fill-opacity:1;"></path> <path fill-rule="evenodd" clip-rule="evenodd" d="M83.5261 66.5474C83.7879 66.2856 84.2122 66.2856 84.474 66.5474L88.7391 70.8125C89.0009 71.0743 89.0009 71.4986 88.7391 71.7604C88.4774 72.0221 88.0531 72.0221 87.7913 71.7604L84.6702 68.6393V101.148L87.7913 98.0271C88.0531 97.7653 88.4774 97.7653 88.7391 98.0271C89.0009 98.2889 89.0009 98.7125 88.7391 98.9743L84.474 103.24C84.2122 103.501 83.7879 103.501 83.5261 103.24L79.2609 98.9743C78.9991 98.7125 78.9991 98.2889 79.2609 98.0271C79.5226 97.7653 79.947 97.7653 80.2087 98.0271L83.3298 101.148V68.6393L80.2087 71.7604C79.947 72.0221 79.5226 72.0221 79.2609 71.7604C78.9991 71.4986 78.9991 71.0743 79.2609 70.8125L83.5261 66.5474Z" fill="#2D3D4D" style="fill:#2D3D4D;fill:color(display-p3 0.1765 0.2392 0.3020);fill-opacity:1;"></path> <path fill-rule="evenodd" clip-rule="evenodd" d="M100.532 108.575H67.4683V150.575H100.532V108.575ZM66.1278 107.234V151.915H101.872V107.234H66.1278Z" fill="#2D3D4D" style="fill:#2D3D4D;fill:color(display-p3 0.1765 0.2392 0.3020);fill-opacity:1;"></path> <path fill-rule="evenodd" clip-rule="evenodd" d="M95.9146 144.329C94.9691 144.329 94.2024 145.096 94.2024 146.042C94.2024 146.987 94.9691 147.754 95.9146 147.754C96.8609 147.754 97.6277 146.987 97.6277 146.042C97.6277 145.096 96.8609 144.329 95.9146 144.329ZM92.862 146.042C92.862 144.356 94.2283 142.989 95.9146 142.989C97.6009 142.989 98.9681 144.356 98.9681 146.042C98.9681 147.728 97.6009 149.095 95.9146 149.095C94.2283 149.095 92.862 147.728 92.862 146.042Z" fill="#2D3D4D" style="fill:#2D3D4D;fill:color(display-p3 0.1765 0.2392 0.3020);fill-opacity:1;"></path> <path fill-rule="evenodd" clip-rule="evenodd" d="M70.5964 146.116C70.473 146.116 70.373 146.216 70.373 146.34C70.373 146.463 70.473 146.563 70.5964 146.563C70.7198 146.563 70.8198 146.463 70.8198 146.34C70.8198 146.216 70.7198 146.116 70.5964 146.116ZM69.0325 146.34C69.0325 145.476 69.7327 144.776 70.5964 144.776C71.46 144.776 72.1602 145.476 72.1602 146.34C72.1602 147.204 71.46 147.904 70.5964 147.904C69.7327 147.904 69.0325 147.204 69.0325 146.34Z" fill="#2D3D4D" style="fill:#2D3D4D;fill:color(display-p3 0.1765 0.2392 0.3020);fill-opacity:1;"></path> <path fill-rule="evenodd" clip-rule="evenodd" d="M74.7658 146.116C74.6424 146.116 74.5424 146.216 74.5424 146.34C74.5424 146.463 74.6424 146.563 74.7658 146.563C74.8892 146.563 74.9892 146.463 74.9892 146.34C74.9892 146.216 74.8892 146.116 74.7658 146.116ZM73.202 146.34C73.202 145.476 73.9021 144.776 74.7658 144.776C75.6295 144.776 76.3296 145.476 76.3296 146.34C76.3296 147.204 75.6295 147.904 74.7658 147.904C73.9021 147.904 73.202 147.204 73.202 146.34Z" fill="#2D3D4D" style="fill:#2D3D4D;fill:color(display-p3 0.1765 0.2392 0.3020);fill-opacity:1;"></path> <path fill-rule="evenodd" clip-rule="evenodd" d="M100.979 140.968H67.0213V139.628H100.979V140.968Z" fill="#2D3D4D" style="fill:#2D3D4D;fill:color(display-p3 0.1765 0.2392 0.3020);fill-opacity:1;"></path> <path fill-rule="evenodd" clip-rule="evenodd" d="M82.9061 124.826L82.438 125.306C82.9061 124.826 82.9059 124.826 82.9061 124.826L82.9078 124.828L82.9105 124.83L82.9186 124.838L82.9457 124.865C82.9683 124.888 82.9999 124.921 83.0392 124.963C83.1175 125.047 83.2264 125.167 83.3543 125.321C83.6092 125.626 83.9437 126.065 84.2619 126.602C84.6309 127.225 84.9955 128.01 85.1721 128.889L85.2982 128.87C85.5964 128.271 85.5968 128.271 85.5972 128.271L85.598 128.272L85.5997 128.273L85.6037 128.274L85.613 128.279C85.6199 128.282 85.6281 128.287 85.6375 128.292C85.6564 128.303 85.6804 128.316 85.7085 128.333C85.7649 128.368 85.8385 128.417 85.9236 128.483C86.0937 128.614 86.3104 128.812 86.5238 129.095C86.9572 129.667 87.3511 130.549 87.3511 131.835C87.3511 134.054 85.6772 135.806 83.5535 135.806C81.4162 135.806 79.7553 133.972 79.7553 131.802C79.7553 130.488 80.3625 129.239 80.8672 128.201C80.88 128.175 80.8928 128.148 80.9055 128.122C81.1735 127.571 81.4125 127.075 81.5761 126.601C81.7389 126.13 81.8083 125.729 81.7714 125.375L81.5794 123.531L82.9061 124.826ZM84.5437 130.73L84.821 131.34L83.6564 131.869L83.8842 130.611C84.1019 129.408 83.6637 128.222 83.1086 127.285C83.0335 127.158 82.9572 127.038 82.8814 126.924C82.869 126.962 82.8562 127 82.8432 127.038C82.6491 127.601 82.3731 128.169 82.113 128.704L82.1112 128.708C81.5656 129.831 81.0957 130.821 81.0957 131.802C81.0957 133.313 82.2355 134.465 83.5535 134.465C84.8839 134.465 86.0106 133.368 86.0106 131.835C86.0106 131.213 85.8933 130.744 85.7421 130.398C85.6801 130.523 85.6097 130.634 85.5346 130.735C85.3802 130.942 85.2153 131.087 85.0847 131.181C85.0191 131.23 84.9612 131.265 84.9159 131.291C84.8933 131.304 84.8737 131.314 84.8577 131.322C84.8497 131.327 84.8426 131.33 84.8364 131.333L84.8279 131.337L84.8243 131.339L84.8226 131.339L84.821 131.34C84.8205 131.34 84.821 131.34 84.5437 130.73ZM81.9692 125.785C81.969 125.784 81.9691 125.785 81.9692 125.785V125.785Z" fill="#2D3D4D" style="fill:#2D3D4D;fill:color(display-p3 0.1765 0.2392 0.3020);fill-opacity:1;"></path> <path d="M118.343 50.7933C117.361 50.7933 116.646 51.4725 116.646 52.7414V57.1916H114.465V52.5984C114.447 51.4367 113.786 50.7933 112.928 50.7933C112.035 50.7933 111.177 51.3116 111.177 52.7414V57.1916H108.996V48.8452H111.177V50.0784C111.641 49.0597 112.785 48.6844 113.572 48.6844C114.894 48.7559 115.77 49.2205 116.235 50.2393C117.021 48.8631 118.2 48.6665 118.862 48.6665C120.881 48.6665 122.079 49.9712 122.079 52.4197V57.1916H119.916V52.652C119.916 51.4546 119.237 50.7933 118.343 50.7933Z" fill="#2D3D4D" style="fill:#2D3D4D;fill:color(display-p3 0.1765 0.2392 0.3020);fill-opacity:1;"></path> <path d="M101.538 47.201L105.702 45.3601V57.1916H103.504V48.3805L101.538 49.1669V47.201Z" fill="#2D3D4D" style="fill:#2D3D4D;fill:color(display-p3 0.1765 0.2392 0.3020);fill-opacity:1;"></path> <path d="M91.9988 54.2427V57.1916H89.8183V48.8452H91.9988V50.8112C92.4277 49.292 93.4107 48.6665 94.3579 48.6665C94.9477 48.6665 95.3945 48.7916 95.7341 48.9703L95.3588 50.9363C94.8405 50.704 94.3043 50.704 94.0898 50.704C92.6064 50.704 91.9988 52.0265 91.9988 54.2427Z" fill="#2D3D4D" style="fill:#2D3D4D;fill:color(display-p3 0.1765 0.2392 0.3020);fill-opacity:1;"></path> <path d="M87.5352 52.9916C87.5352 53.2061 87.5174 53.5457 87.4995 53.7422H81.1369C81.2799 54.8503 82.2093 55.5295 83.4425 55.5295C84.2825 55.5295 85.1404 55.172 85.5335 54.4571C86.0518 54.7431 86.6595 55.0648 87.1957 55.3508C86.445 56.7805 84.8365 57.3703 83.2995 57.3703C80.9225 57.3703 78.9744 55.6188 78.9744 52.9916C78.9744 50.3644 80.9225 48.6665 83.2995 48.6665C85.6765 48.6665 87.5352 50.3644 87.5352 52.9916ZM81.1191 52.2588H85.4084C85.2476 51.115 84.3897 50.4895 83.3174 50.4895C82.1735 50.4895 81.2799 51.1329 81.1191 52.2588Z" fill="#2D3D4D" style="fill:#2D3D4D;fill:color(display-p3 0.1765 0.2392 0.3020);fill-opacity:1;"></path> <path d="M74.409 57.1914V56.0654C73.9443 56.9054 72.872 57.3701 71.7818 57.3701C69.6013 57.3701 67.689 55.6722 67.689 53.0271C67.689 50.3641 69.5835 48.6663 71.7818 48.6663C72.8898 48.6663 73.9443 49.1131 74.409 49.9531V44.3054H76.5716V57.1914H74.409ZM74.3733 52.9914C74.3733 51.5616 73.2652 50.7395 72.1392 50.7395C70.9239 50.7395 69.9409 51.6331 69.9409 52.9914C69.9409 54.3675 70.9239 55.279 72.1392 55.279C73.3367 55.279 74.3733 54.3854 74.3733 52.9914Z" fill="#2D3D4D" style="fill:#2D3D4D;fill:color(display-p3 0.1765 0.2392 0.3020);fill-opacity:1;"></path> <path d="M59.8005 52.7414V57.1916H57.6201V48.8452H59.8005V50.0784C60.2652 49.1848 61.3196 48.6665 62.2847 48.6665C64.2328 48.6665 65.3945 49.8997 65.3945 52.2588V57.1916C65.0371 57.1916 63.5537 57.1916 63.2141 57.1916V52.652C63.2141 51.4367 62.5707 50.7933 61.6235 50.7933C60.6405 50.7933 59.8005 51.2937 59.8005 52.7414Z" fill="#2D3D4D" style="fill:#2D3D4D;fill:color(display-p3 0.1765 0.2392 0.3020);fill-opacity:1;"></path> <path d="M49.9916 55.2077C51.2427 55.2077 52.3686 54.2783 52.3686 52.8485V44.8774H54.6563V52.8485C54.6563 55.6008 52.4937 57.3702 49.9916 57.3702C47.4895 57.3702 45.3091 55.6008 45.3091 52.8485V44.8774H47.6325V52.8485C47.6325 54.2783 48.7405 55.2077 49.9916 55.2077Z" fill="#2D3D4D" style="fill:#2D3D4D;fill:color(display-p3 0.1765 0.2392 0.3020);fill-opacity:1;"></path> </svg>