<svg viewBox="0 0 168 168" fill="none" xmlns="http://www.w3.org/2000/svg"> <path d="M94.6829 70.2213V76.433L100.895 73.9483V101.788H107.841V64.4048L94.6829 70.2213Z" fill="#2D3D4D" style="fill:#2D3D4D;fill:color(display-p3 0.1765 0.2392 0.3020);fill-opacity:1;"></path> <path d="M67.2976 81.053C70.2971 81.053 72.9137 79.0038 72.9137 75.6098V66.1536H69.9567V75.439C69.9567 77.4242 68.6803 78.2353 67.2976 78.2353C65.9361 78.2353 64.6597 77.4242 64.6597 75.439V66.1536H61.7027V75.6098C61.7027 79.0038 64.3193 81.053 67.2976 81.053ZM82.2887 66.1536H76.3108V80.8609H79.2678V75.7165H82.2887C85.6073 75.7165 87.0752 73.3685 87.0752 70.9564C87.0752 68.5443 85.6073 66.1536 82.2887 66.1536ZM82.1397 73.1123H79.2678V68.7791H82.1823C83.5651 68.7791 84.0969 69.8891 84.0969 70.9564C84.0969 72.0023 83.5651 73.1123 82.1397 73.1123ZM71.3232 87.4994H60.2824V90.125H64.3243V102.207H67.2813V90.125H71.3232V87.4994ZM79.5183 102.399C83.6666 102.399 86.9853 99.0262 86.9853 94.8638C86.9853 90.68 83.6666 87.3073 79.5183 87.3073C75.3487 87.3073 72.0726 90.68 72.0726 94.8638C72.0726 99.0262 75.3487 102.399 79.5183 102.399ZM79.5183 99.6239C76.8804 99.6239 75.0296 97.5107 75.0296 94.8638C75.0296 92.2169 76.8804 90.1036 79.5183 90.1036C82.1349 90.1036 84.007 92.2169 84.007 94.8638C84.007 97.5107 82.1349 99.6239 79.5183 99.6239Z" fill="#2D3D4D" style="fill:#2D3D4D;fill:color(display-p3 0.1765 0.2392 0.3020);fill-opacity:1;"></path> </svg>