<svg viewBox="0 0 168 168" fill="none" xmlns="http://www.w3.org/2000/svg"> <path fill-rule="evenodd" clip-rule="evenodd" d="M37.3336 31.5H130.667V131.834H37.3336V31.5Z" stroke="#2D3D4D" style="stroke:#2D3D4D;stroke:color(display-p3 0.1765 0.2392 0.3020);stroke-opacity:1;" stroke-width="1.5" stroke-linecap="round" stroke-linejoin="round"></path> <path d="M38.4997 44.3324H129.499M49.0006 136.5H59.5006V131.834H49.0006V136.5ZM43.1671 40.833H53.6671V36.1665H43.1671V40.833ZM109.666 136.5H120.166V131.834H109.666V136.5Z" stroke="#2D3D4D" style="stroke:#2D3D4D;stroke:color(display-p3 0.1765 0.2392 0.3020);stroke-opacity:1;" stroke-width="1.5" stroke-linecap="round" stroke-linejoin="round"></path> <path d="M108.5 40.833C109.789 40.833 110.833 39.7883 110.833 38.4997C110.833 37.2111 109.789 36.1665 108.5 36.1665C107.212 36.1665 106.167 37.2111 106.167 38.4997C106.167 39.7883 107.212 40.833 108.5 40.833Z" stroke="#2D3D4D" style="stroke:#2D3D4D;stroke:color(display-p3 0.1765 0.2392 0.3020);stroke-opacity:1;" stroke-width="1.5" stroke-linecap="round" stroke-linejoin="round"></path> <path d="M115.5 40.833C116.789 40.833 117.833 39.7883 117.833 38.4997C117.833 37.2111 116.789 36.1665 115.5 36.1665C114.211 36.1665 113.167 37.2111 113.167 38.4997C113.167 39.7883 114.211 40.833 115.5 40.833Z" stroke="#2D3D4D" style="stroke:#2D3D4D;stroke:color(display-p3 0.1765 0.2392 0.3020);stroke-opacity:1;" stroke-width="1.5" stroke-linecap="round" stroke-linejoin="round"></path> <path d="M122.5 40.833C123.788 40.833 124.833 39.7883 124.833 38.4997C124.833 37.2111 123.788 36.1665 122.5 36.1665C121.211 36.1665 120.166 37.2111 120.166 38.4997C120.166 39.7883 121.211 40.833 122.5 40.833Z" stroke="#2D3D4D" style="stroke:#2D3D4D;stroke:color(display-p3 0.1765 0.2392 0.3020);stroke-opacity:1;" stroke-width="1.5" stroke-linecap="round" stroke-linejoin="round"></path> <path d="M83.9999 113.167C96.8865 113.167 107.333 102.72 107.333 89.8335C107.333 76.9469 96.8865 66.5002 83.9999 66.5002C71.1133 66.5002 60.6667 76.9469 60.6667 89.8335C60.6667 102.72 71.1133 113.167 83.9999 113.167Z" stroke="#2D3D4D" style="stroke:#2D3D4D;stroke:color(display-p3 0.1765 0.2392 0.3020);stroke-opacity:1;" stroke-width="1.5" stroke-linecap="round" stroke-linejoin="round"></path> <path d="M84.0001 119.001C100.108 119.001 113.167 105.942 113.167 89.8338C113.167 73.7254 100.108 60.667 84.0001 60.667C67.8917 60.667 54.8333 73.7254 54.8333 89.8338C54.8333 105.942 67.8917 119.001 84.0001 119.001Z" stroke="#2D3D4D" style="stroke:#2D3D4D;stroke:color(display-p3 0.1765 0.2392 0.3020);stroke-opacity:1;" stroke-width="1.5" stroke-linecap="round" stroke-linejoin="round"></path> <path d="M61.8337 91.5832L68.5502 87.2652C68.9829 86.9878 69.4861 86.8403 70.0001 86.8403C70.5141 86.8403 71.0173 86.9878 71.45 87.2652L76.5999 90.5752C77.0602 90.8701 77.5996 91.0177 78.146 90.998C78.6924 90.9784 79.2198 90.7925 79.6578 90.4653L83.4861 87.5932C83.9661 87.2346 84.5522 87.0468 85.1513 87.0594C85.7503 87.072 86.328 87.2844 86.7925 87.6629L90.0202 90.3044C90.4712 90.6721 91.0294 90.8834 91.6108 90.9066C92.1923 90.9298 92.7655 90.7636 93.2444 90.4331L97.5784 87.4332C98.0412 87.1137 98.5926 86.9474 99.1549 86.958C99.7172 86.9686 100.262 87.1554 100.712 87.4922L106.167 91.5832" stroke="#2D3D4D" style="stroke:#2D3D4D;stroke:color(display-p3 0.1765 0.2392 0.3020);stroke-opacity:1;" stroke-width="1.5" stroke-linecap="round" stroke-linejoin="round"></path> </svg>